%TF.GenerationSoftware,KiCad,Pcbnew,(5.1.10)-1*%
%TF.CreationDate,2021-10-07T16:57:37+02:00*%
%TF.ProjectId,KSI_rotator_endstop,4b53495f-726f-4746-9174-6f725f656e64,rev?*%
%TF.SameCoordinates,Original*%
%TF.FileFunction,Copper,L2,Bot*%
%TF.FilePolarity,Positive*%
%FSLAX46Y46*%
G04 Gerber Fmt 4.6, Leading zero omitted, Abs format (unit mm)*
G04 Created by KiCad (PCBNEW (5.1.10)-1) date 2021-10-07 16:57:37*
%MOMM*%
%LPD*%
G01*
G04 APERTURE LIST*
%TA.AperFunction,ComponentPad*%
%ADD10C,1.300000*%
%TD*%
%TA.AperFunction,ComponentPad*%
%ADD11R,1.300000X1.300000*%
%TD*%
%TA.AperFunction,ComponentPad*%
%ADD12O,1.700000X1.700000*%
%TD*%
%TA.AperFunction,ComponentPad*%
%ADD13R,1.700000X1.700000*%
%TD*%
%TA.AperFunction,ViaPad*%
%ADD14C,0.800000*%
%TD*%
%TA.AperFunction,Conductor*%
%ADD15C,0.250000*%
%TD*%
%TA.AperFunction,Conductor*%
%ADD16C,0.254000*%
%TD*%
%TA.AperFunction,Conductor*%
%ADD17C,0.100000*%
%TD*%
G04 APERTURE END LIST*
D10*
%TO.P,U1,4*%
%TO.N,OUT*%
X142000000Y-89770000D03*
%TO.P,U1,2*%
%TO.N,GND*%
X142000000Y-87230000D03*
%TO.P,U1,3*%
X134400000Y-89770000D03*
D11*
%TO.P,U1,1*%
%TO.N,Net-(R1-Pad1)*%
X134400000Y-87230000D03*
%TD*%
D12*
%TO.P,J1,3*%
%TO.N,GND*%
X152200000Y-91080000D03*
%TO.P,J1,2*%
%TO.N,OUT*%
X152200000Y-88540000D03*
D13*
%TO.P,J1,1*%
%TO.N,+5V*%
X152200000Y-86000000D03*
%TD*%
D14*
%TO.N,GND*%
X127100000Y-84800000D03*
X127100000Y-92100000D03*
X149900000Y-92400000D03*
X149700000Y-85700000D03*
%TD*%
D15*
%TO.N,OUT*%
X152160000Y-88540000D02*
X152200000Y-88540000D01*
X149500000Y-91200000D02*
X152160000Y-88540000D01*
X142500000Y-91200000D02*
X149500000Y-91200000D01*
X142000000Y-90700000D02*
X142500000Y-91200000D01*
X142000000Y-89770000D02*
X142000000Y-90700000D01*
%TD*%
D16*
%TO.N,GND*%
X152803232Y-83973615D02*
X152998719Y-84032637D01*
X153179024Y-84128507D01*
X153337270Y-84257570D01*
X153467432Y-84414909D01*
X153564555Y-84594535D01*
X153624940Y-84789608D01*
X153648000Y-85009001D01*
X153648001Y-90952998D01*
X153520156Y-90952998D01*
X153641476Y-90723110D01*
X153596825Y-90575901D01*
X153471641Y-90313080D01*
X153297588Y-90079731D01*
X153081355Y-89884822D01*
X152831252Y-89735843D01*
X152592821Y-89651264D01*
X152757519Y-89583044D01*
X152950294Y-89454236D01*
X153114236Y-89290294D01*
X153243044Y-89097519D01*
X153331769Y-88883318D01*
X153377000Y-88655924D01*
X153377000Y-88424076D01*
X153331769Y-88196682D01*
X153243044Y-87982481D01*
X153114236Y-87789706D01*
X152950294Y-87625764D01*
X152757519Y-87496956D01*
X152543318Y-87408231D01*
X152315924Y-87363000D01*
X152084076Y-87363000D01*
X151856682Y-87408231D01*
X151642481Y-87496956D01*
X151449706Y-87625764D01*
X151285764Y-87789706D01*
X151156956Y-87982481D01*
X151068231Y-88196682D01*
X151023000Y-88424076D01*
X151023000Y-88655924D01*
X151068231Y-88883318D01*
X151100223Y-88960553D01*
X149312777Y-90748000D01*
X142687224Y-90748000D01*
X142530070Y-90590846D01*
X142622801Y-90528885D01*
X142758885Y-90392801D01*
X142865806Y-90232783D01*
X142939454Y-90054980D01*
X142977000Y-89866226D01*
X142977000Y-89673774D01*
X142939454Y-89485020D01*
X142865806Y-89307217D01*
X142758885Y-89147199D01*
X142622801Y-89011115D01*
X142462783Y-88904194D01*
X142284980Y-88830546D01*
X142096226Y-88793000D01*
X141903774Y-88793000D01*
X141715020Y-88830546D01*
X141537217Y-88904194D01*
X141377199Y-89011115D01*
X141241115Y-89147199D01*
X141134194Y-89307217D01*
X141060546Y-89485020D01*
X141023000Y-89673774D01*
X141023000Y-89866226D01*
X141060546Y-90054980D01*
X141134194Y-90232783D01*
X141241115Y-90392801D01*
X141377199Y-90528885D01*
X141537217Y-90635806D01*
X141548001Y-90640273D01*
X141548001Y-90677785D01*
X141545813Y-90700000D01*
X141554540Y-90788607D01*
X141580386Y-90873809D01*
X141611264Y-90931578D01*
X141622358Y-90952333D01*
X141678842Y-91021159D01*
X141696096Y-91035319D01*
X142164681Y-91503905D01*
X142178841Y-91521159D01*
X142247667Y-91577643D01*
X142326190Y-91619614D01*
X142411392Y-91645460D01*
X142500000Y-91654187D01*
X142522205Y-91652000D01*
X149477795Y-91652000D01*
X149500000Y-91654187D01*
X149522205Y-91652000D01*
X149588607Y-91645460D01*
X149673810Y-91619614D01*
X149752333Y-91577643D01*
X149821159Y-91521159D01*
X149835323Y-91503900D01*
X149902333Y-91436890D01*
X150758524Y-91436890D01*
X150803175Y-91584099D01*
X150928359Y-91846920D01*
X151102412Y-92080269D01*
X151318645Y-92275178D01*
X151568748Y-92424157D01*
X151843109Y-92521481D01*
X152073000Y-92400814D01*
X152073000Y-91207000D01*
X150879845Y-91207000D01*
X150758524Y-91436890D01*
X149902333Y-91436890D01*
X150839422Y-90499802D01*
X150803175Y-90575901D01*
X150758524Y-90723110D01*
X150879845Y-90953000D01*
X152073000Y-90953000D01*
X152073000Y-90933000D01*
X152327000Y-90933000D01*
X152327000Y-90953000D01*
X152347000Y-90953000D01*
X152347000Y-91207000D01*
X152327000Y-91207000D01*
X152327000Y-92400814D01*
X152556891Y-92521481D01*
X152831252Y-92424157D01*
X153081355Y-92275178D01*
X153297588Y-92080269D01*
X153471641Y-91846920D01*
X153596825Y-91584099D01*
X153641476Y-91436890D01*
X153520156Y-91207002D01*
X153648001Y-91207002D01*
X153648001Y-91982775D01*
X153626385Y-92203230D01*
X153567364Y-92398717D01*
X153471495Y-92579022D01*
X153342434Y-92737266D01*
X153185094Y-92867430D01*
X153005462Y-92964556D01*
X152810392Y-93024940D01*
X152590999Y-93048000D01*
X127217215Y-93048000D01*
X126996770Y-93026385D01*
X126801283Y-92967364D01*
X126620978Y-92871495D01*
X126462734Y-92742434D01*
X126332570Y-92585094D01*
X126235444Y-92405462D01*
X126175060Y-92210392D01*
X126152000Y-91990999D01*
X126152000Y-90655527D01*
X133694078Y-90655527D01*
X133747466Y-90884201D01*
X133977374Y-90990095D01*
X134223524Y-91049102D01*
X134476455Y-91058952D01*
X134726449Y-91019270D01*
X134963896Y-90931578D01*
X135052534Y-90884201D01*
X135105922Y-90655527D01*
X134400000Y-89949605D01*
X133694078Y-90655527D01*
X126152000Y-90655527D01*
X126152000Y-88305282D01*
X126723000Y-88305282D01*
X126723000Y-88694718D01*
X126798975Y-89076670D01*
X126948005Y-89436461D01*
X127164364Y-89760264D01*
X127439736Y-90035636D01*
X127763539Y-90251995D01*
X128123330Y-90401025D01*
X128505282Y-90477000D01*
X128894718Y-90477000D01*
X129276670Y-90401025D01*
X129636461Y-90251995D01*
X129960264Y-90035636D01*
X130149445Y-89846455D01*
X133111048Y-89846455D01*
X133150730Y-90096449D01*
X133238422Y-90333896D01*
X133285799Y-90422534D01*
X133514473Y-90475922D01*
X134220395Y-89770000D01*
X134579605Y-89770000D01*
X135285527Y-90475922D01*
X135514201Y-90422534D01*
X135620095Y-90192626D01*
X135679102Y-89946476D01*
X135688952Y-89693545D01*
X135649270Y-89443551D01*
X135561578Y-89206104D01*
X135514201Y-89117466D01*
X135285527Y-89064078D01*
X134579605Y-89770000D01*
X134220395Y-89770000D01*
X133514473Y-89064078D01*
X133285799Y-89117466D01*
X133179905Y-89347374D01*
X133120898Y-89593524D01*
X133111048Y-89846455D01*
X130149445Y-89846455D01*
X130235636Y-89760264D01*
X130451995Y-89436461D01*
X130601025Y-89076670D01*
X130639255Y-88884473D01*
X133694078Y-88884473D01*
X134400000Y-89590395D01*
X135105922Y-88884473D01*
X135052534Y-88655799D01*
X134822626Y-88549905D01*
X134576476Y-88490898D01*
X134323545Y-88481048D01*
X134073551Y-88520730D01*
X133836104Y-88608422D01*
X133747466Y-88655799D01*
X133694078Y-88884473D01*
X130639255Y-88884473D01*
X130677000Y-88694718D01*
X130677000Y-88305282D01*
X130601025Y-87923330D01*
X130451995Y-87563539D01*
X130235636Y-87239736D01*
X129960264Y-86964364D01*
X129636461Y-86748005D01*
X129276670Y-86598975D01*
X129181277Y-86580000D01*
X133421418Y-86580000D01*
X133421418Y-87880000D01*
X133427732Y-87944103D01*
X133446430Y-88005743D01*
X133476794Y-88062550D01*
X133517657Y-88112343D01*
X133567450Y-88153206D01*
X133624257Y-88183570D01*
X133685897Y-88202268D01*
X133750000Y-88208582D01*
X135050000Y-88208582D01*
X135114103Y-88202268D01*
X135175743Y-88183570D01*
X135232550Y-88153206D01*
X135278463Y-88115527D01*
X141294078Y-88115527D01*
X141347466Y-88344201D01*
X141577374Y-88450095D01*
X141823524Y-88509102D01*
X142076455Y-88518952D01*
X142326449Y-88479270D01*
X142563896Y-88391578D01*
X142652534Y-88344201D01*
X142661620Y-88305282D01*
X145723000Y-88305282D01*
X145723000Y-88694718D01*
X145798975Y-89076670D01*
X145948005Y-89436461D01*
X146164364Y-89760264D01*
X146439736Y-90035636D01*
X146763539Y-90251995D01*
X147123330Y-90401025D01*
X147505282Y-90477000D01*
X147894718Y-90477000D01*
X148276670Y-90401025D01*
X148636461Y-90251995D01*
X148960264Y-90035636D01*
X149235636Y-89760264D01*
X149451995Y-89436461D01*
X149601025Y-89076670D01*
X149677000Y-88694718D01*
X149677000Y-88305282D01*
X149601025Y-87923330D01*
X149451995Y-87563539D01*
X149235636Y-87239736D01*
X148960264Y-86964364D01*
X148636461Y-86748005D01*
X148276670Y-86598975D01*
X147894718Y-86523000D01*
X147505282Y-86523000D01*
X147123330Y-86598975D01*
X146763539Y-86748005D01*
X146439736Y-86964364D01*
X146164364Y-87239736D01*
X145948005Y-87563539D01*
X145798975Y-87923330D01*
X145723000Y-88305282D01*
X142661620Y-88305282D01*
X142705922Y-88115527D01*
X142000000Y-87409605D01*
X141294078Y-88115527D01*
X135278463Y-88115527D01*
X135282343Y-88112343D01*
X135323206Y-88062550D01*
X135353570Y-88005743D01*
X135372268Y-87944103D01*
X135378582Y-87880000D01*
X135378582Y-87306455D01*
X140711048Y-87306455D01*
X140750730Y-87556449D01*
X140838422Y-87793896D01*
X140885799Y-87882534D01*
X141114473Y-87935922D01*
X141820395Y-87230000D01*
X142179605Y-87230000D01*
X142885527Y-87935922D01*
X143114201Y-87882534D01*
X143220095Y-87652626D01*
X143279102Y-87406476D01*
X143288952Y-87153545D01*
X143249270Y-86903551D01*
X143161578Y-86666104D01*
X143114201Y-86577466D01*
X142885527Y-86524078D01*
X142179605Y-87230000D01*
X141820395Y-87230000D01*
X141114473Y-86524078D01*
X140885799Y-86577466D01*
X140779905Y-86807374D01*
X140720898Y-87053524D01*
X140711048Y-87306455D01*
X135378582Y-87306455D01*
X135378582Y-86580000D01*
X135372268Y-86515897D01*
X135353570Y-86454257D01*
X135323206Y-86397450D01*
X135282343Y-86347657D01*
X135278464Y-86344473D01*
X141294078Y-86344473D01*
X142000000Y-87050395D01*
X142705922Y-86344473D01*
X142652534Y-86115799D01*
X142422626Y-86009905D01*
X142176476Y-85950898D01*
X141923545Y-85941048D01*
X141673551Y-85980730D01*
X141436104Y-86068422D01*
X141347466Y-86115799D01*
X141294078Y-86344473D01*
X135278464Y-86344473D01*
X135232550Y-86306794D01*
X135175743Y-86276430D01*
X135114103Y-86257732D01*
X135050000Y-86251418D01*
X133750000Y-86251418D01*
X133685897Y-86257732D01*
X133624257Y-86276430D01*
X133567450Y-86306794D01*
X133517657Y-86347657D01*
X133476794Y-86397450D01*
X133446430Y-86454257D01*
X133427732Y-86515897D01*
X133421418Y-86580000D01*
X129181277Y-86580000D01*
X128894718Y-86523000D01*
X128505282Y-86523000D01*
X128123330Y-86598975D01*
X127763539Y-86748005D01*
X127439736Y-86964364D01*
X127164364Y-87239736D01*
X126948005Y-87563539D01*
X126798975Y-87923330D01*
X126723000Y-88305282D01*
X126152000Y-88305282D01*
X126152000Y-85150000D01*
X151021418Y-85150000D01*
X151021418Y-86850000D01*
X151027732Y-86914103D01*
X151046430Y-86975743D01*
X151076794Y-87032550D01*
X151117657Y-87082343D01*
X151167450Y-87123206D01*
X151224257Y-87153570D01*
X151285897Y-87172268D01*
X151350000Y-87178582D01*
X153050000Y-87178582D01*
X153114103Y-87172268D01*
X153175743Y-87153570D01*
X153232550Y-87123206D01*
X153282343Y-87082343D01*
X153323206Y-87032550D01*
X153353570Y-86975743D01*
X153372268Y-86914103D01*
X153378582Y-86850000D01*
X153378582Y-85150000D01*
X153372268Y-85085897D01*
X153353570Y-85024257D01*
X153323206Y-84967450D01*
X153282343Y-84917657D01*
X153232550Y-84876794D01*
X153175743Y-84846430D01*
X153114103Y-84827732D01*
X153050000Y-84821418D01*
X151350000Y-84821418D01*
X151285897Y-84827732D01*
X151224257Y-84846430D01*
X151167450Y-84876794D01*
X151117657Y-84917657D01*
X151076794Y-84967450D01*
X151046430Y-85024257D01*
X151027732Y-85085897D01*
X151021418Y-85150000D01*
X126152000Y-85150000D01*
X126152000Y-85017215D01*
X126173615Y-84796768D01*
X126232637Y-84601281D01*
X126328507Y-84420976D01*
X126457570Y-84262730D01*
X126614909Y-84132568D01*
X126794535Y-84035445D01*
X126989608Y-83975060D01*
X127209001Y-83952000D01*
X152582785Y-83952000D01*
X152803232Y-83973615D01*
%TA.AperFunction,Conductor*%
D17*
G36*
X152803232Y-83973615D02*
G01*
X152998719Y-84032637D01*
X153179024Y-84128507D01*
X153337270Y-84257570D01*
X153467432Y-84414909D01*
X153564555Y-84594535D01*
X153624940Y-84789608D01*
X153648000Y-85009001D01*
X153648001Y-90952998D01*
X153520156Y-90952998D01*
X153641476Y-90723110D01*
X153596825Y-90575901D01*
X153471641Y-90313080D01*
X153297588Y-90079731D01*
X153081355Y-89884822D01*
X152831252Y-89735843D01*
X152592821Y-89651264D01*
X152757519Y-89583044D01*
X152950294Y-89454236D01*
X153114236Y-89290294D01*
X153243044Y-89097519D01*
X153331769Y-88883318D01*
X153377000Y-88655924D01*
X153377000Y-88424076D01*
X153331769Y-88196682D01*
X153243044Y-87982481D01*
X153114236Y-87789706D01*
X152950294Y-87625764D01*
X152757519Y-87496956D01*
X152543318Y-87408231D01*
X152315924Y-87363000D01*
X152084076Y-87363000D01*
X151856682Y-87408231D01*
X151642481Y-87496956D01*
X151449706Y-87625764D01*
X151285764Y-87789706D01*
X151156956Y-87982481D01*
X151068231Y-88196682D01*
X151023000Y-88424076D01*
X151023000Y-88655924D01*
X151068231Y-88883318D01*
X151100223Y-88960553D01*
X149312777Y-90748000D01*
X142687224Y-90748000D01*
X142530070Y-90590846D01*
X142622801Y-90528885D01*
X142758885Y-90392801D01*
X142865806Y-90232783D01*
X142939454Y-90054980D01*
X142977000Y-89866226D01*
X142977000Y-89673774D01*
X142939454Y-89485020D01*
X142865806Y-89307217D01*
X142758885Y-89147199D01*
X142622801Y-89011115D01*
X142462783Y-88904194D01*
X142284980Y-88830546D01*
X142096226Y-88793000D01*
X141903774Y-88793000D01*
X141715020Y-88830546D01*
X141537217Y-88904194D01*
X141377199Y-89011115D01*
X141241115Y-89147199D01*
X141134194Y-89307217D01*
X141060546Y-89485020D01*
X141023000Y-89673774D01*
X141023000Y-89866226D01*
X141060546Y-90054980D01*
X141134194Y-90232783D01*
X141241115Y-90392801D01*
X141377199Y-90528885D01*
X141537217Y-90635806D01*
X141548001Y-90640273D01*
X141548001Y-90677785D01*
X141545813Y-90700000D01*
X141554540Y-90788607D01*
X141580386Y-90873809D01*
X141611264Y-90931578D01*
X141622358Y-90952333D01*
X141678842Y-91021159D01*
X141696096Y-91035319D01*
X142164681Y-91503905D01*
X142178841Y-91521159D01*
X142247667Y-91577643D01*
X142326190Y-91619614D01*
X142411392Y-91645460D01*
X142500000Y-91654187D01*
X142522205Y-91652000D01*
X149477795Y-91652000D01*
X149500000Y-91654187D01*
X149522205Y-91652000D01*
X149588607Y-91645460D01*
X149673810Y-91619614D01*
X149752333Y-91577643D01*
X149821159Y-91521159D01*
X149835323Y-91503900D01*
X149902333Y-91436890D01*
X150758524Y-91436890D01*
X150803175Y-91584099D01*
X150928359Y-91846920D01*
X151102412Y-92080269D01*
X151318645Y-92275178D01*
X151568748Y-92424157D01*
X151843109Y-92521481D01*
X152073000Y-92400814D01*
X152073000Y-91207000D01*
X150879845Y-91207000D01*
X150758524Y-91436890D01*
X149902333Y-91436890D01*
X150839422Y-90499802D01*
X150803175Y-90575901D01*
X150758524Y-90723110D01*
X150879845Y-90953000D01*
X152073000Y-90953000D01*
X152073000Y-90933000D01*
X152327000Y-90933000D01*
X152327000Y-90953000D01*
X152347000Y-90953000D01*
X152347000Y-91207000D01*
X152327000Y-91207000D01*
X152327000Y-92400814D01*
X152556891Y-92521481D01*
X152831252Y-92424157D01*
X153081355Y-92275178D01*
X153297588Y-92080269D01*
X153471641Y-91846920D01*
X153596825Y-91584099D01*
X153641476Y-91436890D01*
X153520156Y-91207002D01*
X153648001Y-91207002D01*
X153648001Y-91982775D01*
X153626385Y-92203230D01*
X153567364Y-92398717D01*
X153471495Y-92579022D01*
X153342434Y-92737266D01*
X153185094Y-92867430D01*
X153005462Y-92964556D01*
X152810392Y-93024940D01*
X152590999Y-93048000D01*
X127217215Y-93048000D01*
X126996770Y-93026385D01*
X126801283Y-92967364D01*
X126620978Y-92871495D01*
X126462734Y-92742434D01*
X126332570Y-92585094D01*
X126235444Y-92405462D01*
X126175060Y-92210392D01*
X126152000Y-91990999D01*
X126152000Y-90655527D01*
X133694078Y-90655527D01*
X133747466Y-90884201D01*
X133977374Y-90990095D01*
X134223524Y-91049102D01*
X134476455Y-91058952D01*
X134726449Y-91019270D01*
X134963896Y-90931578D01*
X135052534Y-90884201D01*
X135105922Y-90655527D01*
X134400000Y-89949605D01*
X133694078Y-90655527D01*
X126152000Y-90655527D01*
X126152000Y-88305282D01*
X126723000Y-88305282D01*
X126723000Y-88694718D01*
X126798975Y-89076670D01*
X126948005Y-89436461D01*
X127164364Y-89760264D01*
X127439736Y-90035636D01*
X127763539Y-90251995D01*
X128123330Y-90401025D01*
X128505282Y-90477000D01*
X128894718Y-90477000D01*
X129276670Y-90401025D01*
X129636461Y-90251995D01*
X129960264Y-90035636D01*
X130149445Y-89846455D01*
X133111048Y-89846455D01*
X133150730Y-90096449D01*
X133238422Y-90333896D01*
X133285799Y-90422534D01*
X133514473Y-90475922D01*
X134220395Y-89770000D01*
X134579605Y-89770000D01*
X135285527Y-90475922D01*
X135514201Y-90422534D01*
X135620095Y-90192626D01*
X135679102Y-89946476D01*
X135688952Y-89693545D01*
X135649270Y-89443551D01*
X135561578Y-89206104D01*
X135514201Y-89117466D01*
X135285527Y-89064078D01*
X134579605Y-89770000D01*
X134220395Y-89770000D01*
X133514473Y-89064078D01*
X133285799Y-89117466D01*
X133179905Y-89347374D01*
X133120898Y-89593524D01*
X133111048Y-89846455D01*
X130149445Y-89846455D01*
X130235636Y-89760264D01*
X130451995Y-89436461D01*
X130601025Y-89076670D01*
X130639255Y-88884473D01*
X133694078Y-88884473D01*
X134400000Y-89590395D01*
X135105922Y-88884473D01*
X135052534Y-88655799D01*
X134822626Y-88549905D01*
X134576476Y-88490898D01*
X134323545Y-88481048D01*
X134073551Y-88520730D01*
X133836104Y-88608422D01*
X133747466Y-88655799D01*
X133694078Y-88884473D01*
X130639255Y-88884473D01*
X130677000Y-88694718D01*
X130677000Y-88305282D01*
X130601025Y-87923330D01*
X130451995Y-87563539D01*
X130235636Y-87239736D01*
X129960264Y-86964364D01*
X129636461Y-86748005D01*
X129276670Y-86598975D01*
X129181277Y-86580000D01*
X133421418Y-86580000D01*
X133421418Y-87880000D01*
X133427732Y-87944103D01*
X133446430Y-88005743D01*
X133476794Y-88062550D01*
X133517657Y-88112343D01*
X133567450Y-88153206D01*
X133624257Y-88183570D01*
X133685897Y-88202268D01*
X133750000Y-88208582D01*
X135050000Y-88208582D01*
X135114103Y-88202268D01*
X135175743Y-88183570D01*
X135232550Y-88153206D01*
X135278463Y-88115527D01*
X141294078Y-88115527D01*
X141347466Y-88344201D01*
X141577374Y-88450095D01*
X141823524Y-88509102D01*
X142076455Y-88518952D01*
X142326449Y-88479270D01*
X142563896Y-88391578D01*
X142652534Y-88344201D01*
X142661620Y-88305282D01*
X145723000Y-88305282D01*
X145723000Y-88694718D01*
X145798975Y-89076670D01*
X145948005Y-89436461D01*
X146164364Y-89760264D01*
X146439736Y-90035636D01*
X146763539Y-90251995D01*
X147123330Y-90401025D01*
X147505282Y-90477000D01*
X147894718Y-90477000D01*
X148276670Y-90401025D01*
X148636461Y-90251995D01*
X148960264Y-90035636D01*
X149235636Y-89760264D01*
X149451995Y-89436461D01*
X149601025Y-89076670D01*
X149677000Y-88694718D01*
X149677000Y-88305282D01*
X149601025Y-87923330D01*
X149451995Y-87563539D01*
X149235636Y-87239736D01*
X148960264Y-86964364D01*
X148636461Y-86748005D01*
X148276670Y-86598975D01*
X147894718Y-86523000D01*
X147505282Y-86523000D01*
X147123330Y-86598975D01*
X146763539Y-86748005D01*
X146439736Y-86964364D01*
X146164364Y-87239736D01*
X145948005Y-87563539D01*
X145798975Y-87923330D01*
X145723000Y-88305282D01*
X142661620Y-88305282D01*
X142705922Y-88115527D01*
X142000000Y-87409605D01*
X141294078Y-88115527D01*
X135278463Y-88115527D01*
X135282343Y-88112343D01*
X135323206Y-88062550D01*
X135353570Y-88005743D01*
X135372268Y-87944103D01*
X135378582Y-87880000D01*
X135378582Y-87306455D01*
X140711048Y-87306455D01*
X140750730Y-87556449D01*
X140838422Y-87793896D01*
X140885799Y-87882534D01*
X141114473Y-87935922D01*
X141820395Y-87230000D01*
X142179605Y-87230000D01*
X142885527Y-87935922D01*
X143114201Y-87882534D01*
X143220095Y-87652626D01*
X143279102Y-87406476D01*
X143288952Y-87153545D01*
X143249270Y-86903551D01*
X143161578Y-86666104D01*
X143114201Y-86577466D01*
X142885527Y-86524078D01*
X142179605Y-87230000D01*
X141820395Y-87230000D01*
X141114473Y-86524078D01*
X140885799Y-86577466D01*
X140779905Y-86807374D01*
X140720898Y-87053524D01*
X140711048Y-87306455D01*
X135378582Y-87306455D01*
X135378582Y-86580000D01*
X135372268Y-86515897D01*
X135353570Y-86454257D01*
X135323206Y-86397450D01*
X135282343Y-86347657D01*
X135278464Y-86344473D01*
X141294078Y-86344473D01*
X142000000Y-87050395D01*
X142705922Y-86344473D01*
X142652534Y-86115799D01*
X142422626Y-86009905D01*
X142176476Y-85950898D01*
X141923545Y-85941048D01*
X141673551Y-85980730D01*
X141436104Y-86068422D01*
X141347466Y-86115799D01*
X141294078Y-86344473D01*
X135278464Y-86344473D01*
X135232550Y-86306794D01*
X135175743Y-86276430D01*
X135114103Y-86257732D01*
X135050000Y-86251418D01*
X133750000Y-86251418D01*
X133685897Y-86257732D01*
X133624257Y-86276430D01*
X133567450Y-86306794D01*
X133517657Y-86347657D01*
X133476794Y-86397450D01*
X133446430Y-86454257D01*
X133427732Y-86515897D01*
X133421418Y-86580000D01*
X129181277Y-86580000D01*
X128894718Y-86523000D01*
X128505282Y-86523000D01*
X128123330Y-86598975D01*
X127763539Y-86748005D01*
X127439736Y-86964364D01*
X127164364Y-87239736D01*
X126948005Y-87563539D01*
X126798975Y-87923330D01*
X126723000Y-88305282D01*
X126152000Y-88305282D01*
X126152000Y-85150000D01*
X151021418Y-85150000D01*
X151021418Y-86850000D01*
X151027732Y-86914103D01*
X151046430Y-86975743D01*
X151076794Y-87032550D01*
X151117657Y-87082343D01*
X151167450Y-87123206D01*
X151224257Y-87153570D01*
X151285897Y-87172268D01*
X151350000Y-87178582D01*
X153050000Y-87178582D01*
X153114103Y-87172268D01*
X153175743Y-87153570D01*
X153232550Y-87123206D01*
X153282343Y-87082343D01*
X153323206Y-87032550D01*
X153353570Y-86975743D01*
X153372268Y-86914103D01*
X153378582Y-86850000D01*
X153378582Y-85150000D01*
X153372268Y-85085897D01*
X153353570Y-85024257D01*
X153323206Y-84967450D01*
X153282343Y-84917657D01*
X153232550Y-84876794D01*
X153175743Y-84846430D01*
X153114103Y-84827732D01*
X153050000Y-84821418D01*
X151350000Y-84821418D01*
X151285897Y-84827732D01*
X151224257Y-84846430D01*
X151167450Y-84876794D01*
X151117657Y-84917657D01*
X151076794Y-84967450D01*
X151046430Y-85024257D01*
X151027732Y-85085897D01*
X151021418Y-85150000D01*
X126152000Y-85150000D01*
X126152000Y-85017215D01*
X126173615Y-84796768D01*
X126232637Y-84601281D01*
X126328507Y-84420976D01*
X126457570Y-84262730D01*
X126614909Y-84132568D01*
X126794535Y-84035445D01*
X126989608Y-83975060D01*
X127209001Y-83952000D01*
X152582785Y-83952000D01*
X152803232Y-83973615D01*
G37*
%TD.AperFunction*%
%TD*%
M02*
