M48
; DRILL file {KiCad (5.1.10)-1} date 10/11/21 19:14:41
; FORMAT={-:-/ absolute / metric / decimal}
; #@! TF.CreationDate,2021-10-11T19:14:41+02:00
; #@! TF.GenerationSoftware,Kicad,Pcbnew,(5.1.10)-1
FMAT,2
METRIC
T1C0.400
T2C0.800
T3C1.000
T4C0.800
T5C3.300
%
G90
G05
T1
X127.1Y-84.8
X127.1Y-92.1
X127.1Y-97.8
X127.1Y-105.1
X127.1Y-110.8
X127.1Y-118.1
X127.1Y-123.8
X127.1Y-131.1
X149.7Y-86.0
X149.7Y-99.0
X149.7Y-112.0
X149.7Y-125.0
X149.9Y-92.4
X149.9Y-105.4
X149.9Y-118.4
X149.9Y-131.4
T2
X134.4Y-87.23
X134.4Y-89.77
X134.4Y-100.23
X134.4Y-102.77
X134.4Y-113.23
X134.4Y-115.77
X134.4Y-126.23
X134.4Y-128.77
X142.0Y-87.23
X142.0Y-89.77
X142.0Y-100.23
X142.0Y-102.77
X142.0Y-113.23
X142.0Y-115.77
X142.0Y-126.23
X142.0Y-128.77
T3
X152.2Y-86.0
X152.2Y-88.54
X152.2Y-91.08
X152.2Y-99.0
X152.2Y-101.54
X152.2Y-104.08
X152.2Y-112.0
X152.2Y-114.54
X152.2Y-117.08
X152.2Y-125.0
X152.2Y-127.54
X152.2Y-130.08
T4
X138.812Y-96.85
X138.812Y-109.85
X138.812Y-122.85
X138.812Y-93.15
X138.812Y-106.15
X138.812Y-119.15
X140.271Y-96.85
X140.271Y-109.85
X140.271Y-122.85
X140.271Y-93.15
X140.271Y-106.15
X140.271Y-119.15
X141.729Y-96.85
X141.729Y-109.85
X141.729Y-122.85
X141.729Y-93.15
X141.729Y-106.15
X141.729Y-119.15
X143.188Y-96.85
X143.188Y-109.85
X143.188Y-122.85
X143.188Y-93.15
X143.188Y-106.15
X143.188Y-119.15
T5
X128.7Y-88.5
X128.7Y-101.5
X128.7Y-114.5
X128.7Y-127.5
X147.7Y-88.5
X147.7Y-101.5
X147.7Y-114.5
X147.7Y-127.5
T0
M30
