%TF.GenerationSoftware,KiCad,Pcbnew,(5.1.10)-1*%
%TF.CreationDate,2021-10-11T19:14:40+02:00*%
%TF.ProjectId,output.KSI_rotator_endstop,6f757470-7574-42e4-9b53-495f726f7461,rev?*%
%TF.SameCoordinates,Original*%
%TF.FileFunction,Profile,NP*%
%FSLAX46Y46*%
G04 Gerber Fmt 4.6, Leading zero omitted, Abs format (unit mm)*
G04 Created by KiCad (PCBNEW (5.1.10)-1) date 2021-10-11 19:14:40*
%MOMM*%
%LPD*%
G01*
G04 APERTURE LIST*
%TA.AperFunction,Profile*%
%ADD10C,0.050000*%
%TD*%
%TA.AperFunction,Profile*%
%ADD11C,0.100000*%
%TD*%
G04 APERTURE END LIST*
D10*
X125800000Y-124000000D02*
G75*
G02*
X127200000Y-122600000I1400000J0D01*
G01*
X154000000Y-131000000D02*
G75*
G02*
X152600000Y-132400000I-1400000J0D01*
G01*
X127200000Y-119400000D02*
G75*
G02*
X125800000Y-118000000I0J1400000D01*
G01*
X152600000Y-132400000D02*
X127200000Y-132400000D01*
X127200000Y-132400000D02*
G75*
G02*
X125800000Y-131000000I0J1400000D01*
G01*
X152600000Y-122600000D02*
G75*
G02*
X154000000Y-124000000I0J-1400000D01*
G01*
X125800000Y-124000000D02*
X125800000Y-131000000D01*
X154000000Y-124000000D02*
X154000000Y-131000000D01*
X152600000Y-109600000D02*
G75*
G02*
X154000000Y-111000000I0J-1400000D01*
G01*
X125800000Y-111000000D02*
X125800000Y-118000000D01*
X154000000Y-118000000D02*
G75*
G02*
X152600000Y-119400000I-1400000J0D01*
G01*
X154000000Y-111000000D02*
X154000000Y-118000000D01*
X125800000Y-111000000D02*
G75*
G02*
X127200000Y-109600000I1400000J0D01*
G01*
X127200000Y-106400000D02*
G75*
G02*
X125800000Y-105000000I0J1400000D01*
G01*
X152600000Y-96600000D02*
G75*
G02*
X154000000Y-98000000I0J-1400000D01*
G01*
X125800000Y-98000000D02*
X125800000Y-105000000D01*
X154000000Y-105000000D02*
G75*
G02*
X152600000Y-106400000I-1400000J0D01*
G01*
X154000000Y-98000000D02*
X154000000Y-105000000D01*
X125800000Y-98000000D02*
G75*
G02*
X127200000Y-96600000I1400000J0D01*
G01*
X125800000Y-85000000D02*
G75*
G02*
X127200000Y-83600000I1400000J0D01*
G01*
X154000000Y-85000000D02*
X154000000Y-92000000D01*
X127200000Y-83600000D02*
X152600000Y-83600000D01*
X154000000Y-92000000D02*
G75*
G02*
X152600000Y-93400000I-1400000J0D01*
G01*
X125800000Y-85000000D02*
X125800000Y-92000000D01*
X152600000Y-83600000D02*
G75*
G02*
X154000000Y-85000000I0J-1400000D01*
G01*
X127200000Y-93400000D02*
G75*
G02*
X125800000Y-92000000I0J1400000D01*
G01*
D11*
X143500003Y-119400000D02*
X152600000Y-119400000D01*
X138499992Y-119400000D02*
X127200000Y-119400000D01*
X138499992Y-122600000D02*
X127200000Y-122600000D01*
X143500003Y-122600000D02*
X152600000Y-122600000D01*
X138499992Y-122600000D02*
X138599696Y-122592313D01*
X138499992Y-119400000D02*
X138599696Y-119407687D01*
X138599696Y-122592313D02*
X138698514Y-122576985D01*
X138599696Y-119407687D02*
X138698514Y-119423015D01*
X138698514Y-122576985D02*
X138795861Y-122554107D01*
X138698514Y-119423015D02*
X138795861Y-119445893D01*
X138795861Y-122554107D02*
X138891161Y-122523814D01*
X138795861Y-119445893D02*
X138891161Y-119476186D01*
X138891161Y-122523814D02*
X138983851Y-122486285D01*
X138891161Y-119476186D02*
X138983851Y-119513715D01*
X138983851Y-122486285D02*
X139073382Y-122441742D01*
X138983851Y-119513715D02*
X139073382Y-119558258D01*
X139073382Y-122441742D02*
X139159224Y-122390449D01*
X139073382Y-119558258D02*
X139159224Y-119609551D01*
X139159224Y-122390449D02*
X139240869Y-122332709D01*
X139159224Y-119609551D02*
X139240869Y-119667291D01*
X139240869Y-122332709D02*
X139317834Y-122268864D01*
X139240869Y-119667291D02*
X139317834Y-119731136D01*
X139317834Y-122268864D02*
X139389664Y-122199292D01*
X139317834Y-119731136D02*
X139389664Y-119800708D01*
X139389664Y-122199292D02*
X139455934Y-122124405D01*
X139389664Y-119800708D02*
X139455934Y-119875595D01*
X139455934Y-122124405D02*
X139516252Y-122044646D01*
X139455934Y-119875595D02*
X139516252Y-119955354D01*
X139516252Y-122044646D02*
X139570261Y-121960487D01*
X139516252Y-119955354D02*
X139570261Y-120039513D01*
X139570261Y-121960487D02*
X139617641Y-121872426D01*
X139570261Y-120039513D02*
X139617641Y-120127574D01*
X139617641Y-121872426D02*
X139658112Y-121780984D01*
X139617641Y-120127574D02*
X139658112Y-120219016D01*
X139658112Y-121780984D02*
X139691434Y-121686702D01*
X139658112Y-120219016D02*
X139691434Y-120313298D01*
X139691434Y-121686702D02*
X139717410Y-121590138D01*
X139691434Y-120313298D02*
X139717410Y-120409862D01*
X139717410Y-121590138D02*
X139735887Y-121491863D01*
X139717410Y-120409862D02*
X139735887Y-120508137D01*
X139735887Y-121491863D02*
X139746755Y-121392458D01*
X139735887Y-120508137D02*
X139746755Y-120607542D01*
X139746755Y-121392458D02*
X139749950Y-121292512D01*
X139746755Y-120607542D02*
X139749950Y-120707488D01*
X139749950Y-120707488D02*
X139749950Y-121292512D01*
X143500003Y-122600000D02*
X143400299Y-122592313D01*
X143500003Y-119400000D02*
X143400299Y-119407687D01*
X143400299Y-122592313D02*
X143301481Y-122576985D01*
X143400299Y-119407687D02*
X143301481Y-119423015D01*
X143301481Y-122576985D02*
X143204134Y-122554107D01*
X143301481Y-119423015D02*
X143204134Y-119445893D01*
X143204134Y-122554107D02*
X143108834Y-122523814D01*
X143204134Y-119445893D02*
X143108834Y-119476186D01*
X143108834Y-122523814D02*
X143016144Y-122486285D01*
X143108834Y-119476186D02*
X143016144Y-119513715D01*
X143016144Y-122486285D02*
X142926613Y-122441742D01*
X143016144Y-119513715D02*
X142926613Y-119558258D01*
X142926613Y-122441742D02*
X142840771Y-122390449D01*
X142926613Y-119558258D02*
X142840771Y-119609551D01*
X142840771Y-122390449D02*
X142759126Y-122332709D01*
X142840771Y-119609551D02*
X142759126Y-119667291D01*
X142759126Y-122332709D02*
X142682161Y-122268864D01*
X142759126Y-119667291D02*
X142682161Y-119731136D01*
X142682161Y-122268864D02*
X142610331Y-122199292D01*
X142682161Y-119731136D02*
X142610331Y-119800708D01*
X142610331Y-122199292D02*
X142544061Y-122124405D01*
X142610331Y-119800708D02*
X142544061Y-119875595D01*
X142544061Y-122124405D02*
X142483743Y-122044646D01*
X142544061Y-119875595D02*
X142483743Y-119955354D01*
X142483743Y-122044646D02*
X142429734Y-121960487D01*
X142483743Y-119955354D02*
X142429734Y-120039513D01*
X142429734Y-121960487D02*
X142382354Y-121872426D01*
X142429734Y-120039513D02*
X142382354Y-120127574D01*
X142382354Y-121872426D02*
X142341883Y-121780984D01*
X142382354Y-120127574D02*
X142341883Y-120219016D01*
X142341883Y-121780984D02*
X142308561Y-121686702D01*
X142341883Y-120219016D02*
X142308561Y-120313298D01*
X142308561Y-121686702D02*
X142282585Y-121590138D01*
X142308561Y-120313298D02*
X142282585Y-120409862D01*
X142282585Y-121590138D02*
X142264108Y-121491863D01*
X142282585Y-120409862D02*
X142264108Y-120508137D01*
X142264108Y-121491863D02*
X142253240Y-121392458D01*
X142264108Y-120508137D02*
X142253240Y-120607542D01*
X142253240Y-121392458D02*
X142250045Y-121292512D01*
X142253240Y-120607542D02*
X142250045Y-120707488D01*
X142250045Y-120707488D02*
X142250045Y-121292512D01*
X143500003Y-106400000D02*
X152600000Y-106400000D01*
X138499992Y-106400000D02*
X127200000Y-106400000D01*
X138499992Y-109600000D02*
X127200000Y-109600000D01*
X143500003Y-109600000D02*
X152600000Y-109600000D01*
X138499992Y-109600000D02*
X138599696Y-109592313D01*
X138499992Y-106400000D02*
X138599696Y-106407687D01*
X138599696Y-109592313D02*
X138698514Y-109576985D01*
X138599696Y-106407687D02*
X138698514Y-106423015D01*
X138698514Y-109576985D02*
X138795861Y-109554107D01*
X138698514Y-106423015D02*
X138795861Y-106445893D01*
X138795861Y-109554107D02*
X138891161Y-109523814D01*
X138795861Y-106445893D02*
X138891161Y-106476186D01*
X138891161Y-109523814D02*
X138983851Y-109486285D01*
X138891161Y-106476186D02*
X138983851Y-106513715D01*
X138983851Y-109486285D02*
X139073382Y-109441742D01*
X138983851Y-106513715D02*
X139073382Y-106558258D01*
X139073382Y-109441742D02*
X139159224Y-109390449D01*
X139073382Y-106558258D02*
X139159224Y-106609551D01*
X139159224Y-109390449D02*
X139240869Y-109332709D01*
X139159224Y-106609551D02*
X139240869Y-106667291D01*
X139240869Y-109332709D02*
X139317834Y-109268864D01*
X139240869Y-106667291D02*
X139317834Y-106731136D01*
X139317834Y-109268864D02*
X139389664Y-109199292D01*
X139317834Y-106731136D02*
X139389664Y-106800708D01*
X139389664Y-109199292D02*
X139455934Y-109124405D01*
X139389664Y-106800708D02*
X139455934Y-106875595D01*
X139455934Y-109124405D02*
X139516252Y-109044646D01*
X139455934Y-106875595D02*
X139516252Y-106955354D01*
X139516252Y-109044646D02*
X139570261Y-108960487D01*
X139516252Y-106955354D02*
X139570261Y-107039513D01*
X139570261Y-108960487D02*
X139617641Y-108872426D01*
X139570261Y-107039513D02*
X139617641Y-107127574D01*
X139617641Y-108872426D02*
X139658112Y-108780984D01*
X139617641Y-107127574D02*
X139658112Y-107219016D01*
X139658112Y-108780984D02*
X139691434Y-108686702D01*
X139658112Y-107219016D02*
X139691434Y-107313298D01*
X139691434Y-108686702D02*
X139717410Y-108590138D01*
X139691434Y-107313298D02*
X139717410Y-107409862D01*
X139717410Y-108590138D02*
X139735887Y-108491863D01*
X139717410Y-107409862D02*
X139735887Y-107508137D01*
X139735887Y-108491863D02*
X139746755Y-108392458D01*
X139735887Y-107508137D02*
X139746755Y-107607542D01*
X139746755Y-108392458D02*
X139749950Y-108292512D01*
X139746755Y-107607542D02*
X139749950Y-107707488D01*
X139749950Y-107707488D02*
X139749950Y-108292512D01*
X143500003Y-109600000D02*
X143400299Y-109592313D01*
X143500003Y-106400000D02*
X143400299Y-106407687D01*
X143400299Y-109592313D02*
X143301481Y-109576985D01*
X143400299Y-106407687D02*
X143301481Y-106423015D01*
X143301481Y-109576985D02*
X143204134Y-109554107D01*
X143301481Y-106423015D02*
X143204134Y-106445893D01*
X143204134Y-109554107D02*
X143108834Y-109523814D01*
X143204134Y-106445893D02*
X143108834Y-106476186D01*
X143108834Y-109523814D02*
X143016144Y-109486285D01*
X143108834Y-106476186D02*
X143016144Y-106513715D01*
X143016144Y-109486285D02*
X142926613Y-109441742D01*
X143016144Y-106513715D02*
X142926613Y-106558258D01*
X142926613Y-109441742D02*
X142840771Y-109390449D01*
X142926613Y-106558258D02*
X142840771Y-106609551D01*
X142840771Y-109390449D02*
X142759126Y-109332709D01*
X142840771Y-106609551D02*
X142759126Y-106667291D01*
X142759126Y-109332709D02*
X142682161Y-109268864D01*
X142759126Y-106667291D02*
X142682161Y-106731136D01*
X142682161Y-109268864D02*
X142610331Y-109199292D01*
X142682161Y-106731136D02*
X142610331Y-106800708D01*
X142610331Y-109199292D02*
X142544061Y-109124405D01*
X142610331Y-106800708D02*
X142544061Y-106875595D01*
X142544061Y-109124405D02*
X142483743Y-109044646D01*
X142544061Y-106875595D02*
X142483743Y-106955354D01*
X142483743Y-109044646D02*
X142429734Y-108960487D01*
X142483743Y-106955354D02*
X142429734Y-107039513D01*
X142429734Y-108960487D02*
X142382354Y-108872426D01*
X142429734Y-107039513D02*
X142382354Y-107127574D01*
X142382354Y-108872426D02*
X142341883Y-108780984D01*
X142382354Y-107127574D02*
X142341883Y-107219016D01*
X142341883Y-108780984D02*
X142308561Y-108686702D01*
X142341883Y-107219016D02*
X142308561Y-107313298D01*
X142308561Y-108686702D02*
X142282585Y-108590138D01*
X142308561Y-107313298D02*
X142282585Y-107409862D01*
X142282585Y-108590138D02*
X142264108Y-108491863D01*
X142282585Y-107409862D02*
X142264108Y-107508137D01*
X142264108Y-108491863D02*
X142253240Y-108392458D01*
X142264108Y-107508137D02*
X142253240Y-107607542D01*
X142253240Y-108392458D02*
X142250045Y-108292512D01*
X142253240Y-107607542D02*
X142250045Y-107707488D01*
X142250045Y-107707488D02*
X142250045Y-108292512D01*
X143500003Y-93400000D02*
X152600000Y-93400000D01*
X138499992Y-93400000D02*
X127200000Y-93400000D01*
X138499992Y-96600000D02*
X127200000Y-96600000D01*
X143500003Y-96600000D02*
X152600000Y-96600000D01*
X138499992Y-96600000D02*
X138599696Y-96592313D01*
X138499992Y-93400000D02*
X138599696Y-93407687D01*
X138599696Y-96592313D02*
X138698514Y-96576985D01*
X138599696Y-93407687D02*
X138698514Y-93423015D01*
X138698514Y-96576985D02*
X138795861Y-96554107D01*
X138698514Y-93423015D02*
X138795861Y-93445893D01*
X138795861Y-96554107D02*
X138891161Y-96523814D01*
X138795861Y-93445893D02*
X138891161Y-93476186D01*
X138891161Y-96523814D02*
X138983851Y-96486285D01*
X138891161Y-93476186D02*
X138983851Y-93513715D01*
X138983851Y-96486285D02*
X139073382Y-96441742D01*
X138983851Y-93513715D02*
X139073382Y-93558258D01*
X139073382Y-96441742D02*
X139159224Y-96390449D01*
X139073382Y-93558258D02*
X139159224Y-93609551D01*
X139159224Y-96390449D02*
X139240869Y-96332709D01*
X139159224Y-93609551D02*
X139240869Y-93667291D01*
X139240869Y-96332709D02*
X139317834Y-96268864D01*
X139240869Y-93667291D02*
X139317834Y-93731136D01*
X139317834Y-96268864D02*
X139389664Y-96199292D01*
X139317834Y-93731136D02*
X139389664Y-93800708D01*
X139389664Y-96199292D02*
X139455934Y-96124405D01*
X139389664Y-93800708D02*
X139455934Y-93875595D01*
X139455934Y-96124405D02*
X139516252Y-96044646D01*
X139455934Y-93875595D02*
X139516252Y-93955354D01*
X139516252Y-96044646D02*
X139570261Y-95960487D01*
X139516252Y-93955354D02*
X139570261Y-94039513D01*
X139570261Y-95960487D02*
X139617641Y-95872426D01*
X139570261Y-94039513D02*
X139617641Y-94127574D01*
X139617641Y-95872426D02*
X139658112Y-95780984D01*
X139617641Y-94127574D02*
X139658112Y-94219016D01*
X139658112Y-95780984D02*
X139691434Y-95686702D01*
X139658112Y-94219016D02*
X139691434Y-94313298D01*
X139691434Y-95686702D02*
X139717410Y-95590138D01*
X139691434Y-94313298D02*
X139717410Y-94409862D01*
X139717410Y-95590138D02*
X139735887Y-95491863D01*
X139717410Y-94409862D02*
X139735887Y-94508137D01*
X139735887Y-95491863D02*
X139746755Y-95392458D01*
X139735887Y-94508137D02*
X139746755Y-94607542D01*
X139746755Y-95392458D02*
X139749950Y-95292512D01*
X139746755Y-94607542D02*
X139749950Y-94707488D01*
X139749950Y-94707488D02*
X139749950Y-95292512D01*
X143500003Y-96600000D02*
X143400299Y-96592313D01*
X143500003Y-93400000D02*
X143400299Y-93407687D01*
X143400299Y-96592313D02*
X143301481Y-96576985D01*
X143400299Y-93407687D02*
X143301481Y-93423015D01*
X143301481Y-96576985D02*
X143204134Y-96554107D01*
X143301481Y-93423015D02*
X143204134Y-93445893D01*
X143204134Y-96554107D02*
X143108834Y-96523814D01*
X143204134Y-93445893D02*
X143108834Y-93476186D01*
X143108834Y-96523814D02*
X143016144Y-96486285D01*
X143108834Y-93476186D02*
X143016144Y-93513715D01*
X143016144Y-96486285D02*
X142926613Y-96441742D01*
X143016144Y-93513715D02*
X142926613Y-93558258D01*
X142926613Y-96441742D02*
X142840771Y-96390449D01*
X142926613Y-93558258D02*
X142840771Y-93609551D01*
X142840771Y-96390449D02*
X142759126Y-96332709D01*
X142840771Y-93609551D02*
X142759126Y-93667291D01*
X142759126Y-96332709D02*
X142682161Y-96268864D01*
X142759126Y-93667291D02*
X142682161Y-93731136D01*
X142682161Y-96268864D02*
X142610331Y-96199292D01*
X142682161Y-93731136D02*
X142610331Y-93800708D01*
X142610331Y-96199292D02*
X142544061Y-96124405D01*
X142610331Y-93800708D02*
X142544061Y-93875595D01*
X142544061Y-96124405D02*
X142483743Y-96044646D01*
X142544061Y-93875595D02*
X142483743Y-93955354D01*
X142483743Y-96044646D02*
X142429734Y-95960487D01*
X142483743Y-93955354D02*
X142429734Y-94039513D01*
X142429734Y-95960487D02*
X142382354Y-95872426D01*
X142429734Y-94039513D02*
X142382354Y-94127574D01*
X142382354Y-95872426D02*
X142341883Y-95780984D01*
X142382354Y-94127574D02*
X142341883Y-94219016D01*
X142341883Y-95780984D02*
X142308561Y-95686702D01*
X142341883Y-94219016D02*
X142308561Y-94313298D01*
X142308561Y-95686702D02*
X142282585Y-95590138D01*
X142308561Y-94313298D02*
X142282585Y-94409862D01*
X142282585Y-95590138D02*
X142264108Y-95491863D01*
X142282585Y-94409862D02*
X142264108Y-94508137D01*
X142264108Y-95491863D02*
X142253240Y-95392458D01*
X142264108Y-94508137D02*
X142253240Y-94607542D01*
X142253240Y-95392458D02*
X142250045Y-95292512D01*
X142253240Y-94607542D02*
X142250045Y-94707488D01*
X142250045Y-94707488D02*
X142250045Y-95292512D01*
M02*
