%TF.GenerationSoftware,KiCad,Pcbnew,(5.1.10)-1*%
%TF.CreationDate,2021-10-11T19:14:40+02:00*%
%TF.ProjectId,output.KSI_rotator_endstop,6f757470-7574-42e4-9b53-495f726f7461,rev?*%
%TF.SameCoordinates,Original*%
%TF.FileFunction,Legend,Top*%
%TF.FilePolarity,Positive*%
%FSLAX46Y46*%
G04 Gerber Fmt 4.6, Leading zero omitted, Abs format (unit mm)*
G04 Created by KiCad (PCBNEW (5.1.10)-1) date 2021-10-11 19:14:40*
%MOMM*%
%LPD*%
G01*
G04 APERTURE LIST*
%ADD10C,0.150000*%
%ADD11C,0.250000*%
%ADD12C,0.120000*%
G04 APERTURE END LIST*
D10*
%TO.C,U4*%
X125900000Y-130675000D02*
X125900000Y-124325000D01*
X125900000Y-124325000D02*
X150500000Y-124325000D01*
X150500000Y-124325000D02*
X150500000Y-130675000D01*
X150500000Y-130675000D02*
X125900000Y-130675000D01*
D11*
X134400001Y-123500000D02*
G75*
G03*
X134400001Y-123500000I-125000J0D01*
G01*
D10*
%TO.C,U3*%
X125900000Y-117675000D02*
X125900000Y-111325000D01*
X125900000Y-111325000D02*
X150500000Y-111325000D01*
X150500000Y-111325000D02*
X150500000Y-117675000D01*
X150500000Y-117675000D02*
X125900000Y-117675000D01*
D11*
X134400001Y-110500000D02*
G75*
G03*
X134400001Y-110500000I-125000J0D01*
G01*
D10*
%TO.C,U2*%
X125900000Y-104675000D02*
X125900000Y-98325000D01*
X125900000Y-98325000D02*
X150500000Y-98325000D01*
X150500000Y-98325000D02*
X150500000Y-104675000D01*
X150500000Y-104675000D02*
X125900000Y-104675000D01*
D11*
X134400001Y-97500000D02*
G75*
G03*
X134400001Y-97500000I-125000J0D01*
G01*
D10*
%TO.C,U1*%
X125900000Y-91675000D02*
X125900000Y-85325000D01*
X125900000Y-85325000D02*
X150500000Y-85325000D01*
X150500000Y-85325000D02*
X150500000Y-91675000D01*
X150500000Y-91675000D02*
X125900000Y-91675000D01*
D11*
X134400001Y-84500000D02*
G75*
G03*
X134400001Y-84500000I-125000J0D01*
G01*
D12*
%TO.C,R8*%
X146245276Y-132022500D02*
X146754724Y-132022500D01*
X146245276Y-130977500D02*
X146754724Y-130977500D01*
%TO.C,R7*%
X146245276Y-119022500D02*
X146754724Y-119022500D01*
X146245276Y-117977500D02*
X146754724Y-117977500D01*
%TO.C,R6*%
X136245276Y-124022500D02*
X136754724Y-124022500D01*
X136245276Y-122977500D02*
X136754724Y-122977500D01*
%TO.C,R5*%
X136245276Y-111022500D02*
X136754724Y-111022500D01*
X136245276Y-109977500D02*
X136754724Y-109977500D01*
%TO.C,R4*%
X146245276Y-106022500D02*
X146754724Y-106022500D01*
X146245276Y-104977500D02*
X146754724Y-104977500D01*
%TO.C,R3*%
X136245276Y-98022500D02*
X136754724Y-98022500D01*
X136245276Y-96977500D02*
X136754724Y-96977500D01*
%TO.C,J4*%
X150870000Y-123670000D02*
X152200000Y-123670000D01*
X150870000Y-125000000D02*
X150870000Y-123670000D01*
X150870000Y-126270000D02*
X153530000Y-126270000D01*
X153530000Y-126270000D02*
X153530000Y-131410000D01*
X150870000Y-126270000D02*
X150870000Y-131410000D01*
X150870000Y-131410000D02*
X153530000Y-131410000D01*
%TO.C,J3*%
X150870000Y-110670000D02*
X152200000Y-110670000D01*
X150870000Y-112000000D02*
X150870000Y-110670000D01*
X150870000Y-113270000D02*
X153530000Y-113270000D01*
X153530000Y-113270000D02*
X153530000Y-118410000D01*
X150870000Y-113270000D02*
X150870000Y-118410000D01*
X150870000Y-118410000D02*
X153530000Y-118410000D01*
%TO.C,J2*%
X150870000Y-97670000D02*
X152200000Y-97670000D01*
X150870000Y-99000000D02*
X150870000Y-97670000D01*
X150870000Y-100270000D02*
X153530000Y-100270000D01*
X153530000Y-100270000D02*
X153530000Y-105410000D01*
X150870000Y-100270000D02*
X150870000Y-105410000D01*
X150870000Y-105410000D02*
X153530000Y-105410000D01*
%TO.C,J1*%
X150870000Y-84670000D02*
X152200000Y-84670000D01*
X150870000Y-86000000D02*
X150870000Y-84670000D01*
X150870000Y-87270000D02*
X153530000Y-87270000D01*
X153530000Y-87270000D02*
X153530000Y-92410000D01*
X150870000Y-87270000D02*
X150870000Y-92410000D01*
X150870000Y-92410000D02*
X153530000Y-92410000D01*
%TO.C,R1*%
X136245276Y-85022500D02*
X136754724Y-85022500D01*
X136245276Y-83977500D02*
X136754724Y-83977500D01*
%TO.C,R2*%
X146245276Y-93022500D02*
X146754724Y-93022500D01*
X146245276Y-91977500D02*
X146754724Y-91977500D01*
%TO.C,*%
D10*
%TD*%
M02*
