%TF.GenerationSoftware,KiCad,Pcbnew,(5.1.10)-1*%
%TF.CreationDate,2021-10-07T19:24:08+02:00*%
%TF.ProjectId,output.KSI_rotator_endstop,6f757470-7574-42e4-9b53-495f726f7461,rev?*%
%TF.SameCoordinates,Original*%
%TF.FileFunction,Legend,Top*%
%TF.FilePolarity,Positive*%
%FSLAX46Y46*%
G04 Gerber Fmt 4.6, Leading zero omitted, Abs format (unit mm)*
G04 Created by KiCad (PCBNEW (5.1.10)-1) date 2021-10-07 19:24:08*
%MOMM*%
%LPD*%
G01*
G04 APERTURE LIST*
%ADD10C,0.150000*%
%ADD11C,0.250000*%
%ADD12C,0.120000*%
G04 APERTURE END LIST*
D10*
%TO.C,U1*%
X125900000Y-156675000D02*
X125900000Y-150325000D01*
X125900000Y-150325000D02*
X150500000Y-150325000D01*
X150500000Y-150325000D02*
X150500000Y-156675000D01*
X150500000Y-156675000D02*
X125900000Y-156675000D01*
D11*
X134400001Y-149500000D02*
G75*
G03*
X134400001Y-149500000I-125000J0D01*
G01*
D10*
X125900000Y-143675000D02*
X125900000Y-137325000D01*
X125900000Y-137325000D02*
X150500000Y-137325000D01*
X150500000Y-137325000D02*
X150500000Y-143675000D01*
X150500000Y-143675000D02*
X125900000Y-143675000D01*
D11*
X134400001Y-136500000D02*
G75*
G03*
X134400001Y-136500000I-125000J0D01*
G01*
D10*
X125900000Y-130675000D02*
X125900000Y-124325000D01*
X125900000Y-124325000D02*
X150500000Y-124325000D01*
X150500000Y-124325000D02*
X150500000Y-130675000D01*
X150500000Y-130675000D02*
X125900000Y-130675000D01*
D11*
X134400001Y-123500000D02*
G75*
G03*
X134400001Y-123500000I-125000J0D01*
G01*
D10*
X125900000Y-117675000D02*
X125900000Y-111325000D01*
X125900000Y-111325000D02*
X150500000Y-111325000D01*
X150500000Y-111325000D02*
X150500000Y-117675000D01*
X150500000Y-117675000D02*
X125900000Y-117675000D01*
D11*
X134400001Y-110500000D02*
G75*
G03*
X134400001Y-110500000I-125000J0D01*
G01*
D10*
X125900000Y-104675000D02*
X125900000Y-98325000D01*
X125900000Y-98325000D02*
X150500000Y-98325000D01*
X150500000Y-98325000D02*
X150500000Y-104675000D01*
X150500000Y-104675000D02*
X125900000Y-104675000D01*
D11*
X134400001Y-97500000D02*
G75*
G03*
X134400001Y-97500000I-125000J0D01*
G01*
D10*
X125900000Y-91675000D02*
X125900000Y-85325000D01*
X125900000Y-85325000D02*
X150500000Y-85325000D01*
X150500000Y-85325000D02*
X150500000Y-91675000D01*
X150500000Y-91675000D02*
X125900000Y-91675000D01*
D11*
X134400001Y-84500000D02*
G75*
G03*
X134400001Y-84500000I-125000J0D01*
G01*
D12*
%TO.C,J1*%
X150870000Y-157410000D02*
X153530000Y-157410000D01*
X150870000Y-152270000D02*
X150870000Y-157410000D01*
X153530000Y-152270000D02*
X153530000Y-157410000D01*
X150870000Y-152270000D02*
X153530000Y-152270000D01*
X150870000Y-151000000D02*
X150870000Y-149670000D01*
X150870000Y-149670000D02*
X152200000Y-149670000D01*
%TO.C,R1*%
X136545276Y-148977500D02*
X137054724Y-148977500D01*
X136545276Y-150022500D02*
X137054724Y-150022500D01*
%TO.C,R2*%
X146245276Y-156977500D02*
X146754724Y-156977500D01*
X146245276Y-158022500D02*
X146754724Y-158022500D01*
%TO.C,J1*%
X150870000Y-144410000D02*
X153530000Y-144410000D01*
X150870000Y-139270000D02*
X150870000Y-144410000D01*
X153530000Y-139270000D02*
X153530000Y-144410000D01*
X150870000Y-139270000D02*
X153530000Y-139270000D01*
X150870000Y-138000000D02*
X150870000Y-136670000D01*
X150870000Y-136670000D02*
X152200000Y-136670000D01*
%TO.C,R1*%
X136545276Y-135977500D02*
X137054724Y-135977500D01*
X136545276Y-137022500D02*
X137054724Y-137022500D01*
%TO.C,R2*%
X146245276Y-143977500D02*
X146754724Y-143977500D01*
X146245276Y-145022500D02*
X146754724Y-145022500D01*
%TO.C,J1*%
X150870000Y-131410000D02*
X153530000Y-131410000D01*
X150870000Y-126270000D02*
X150870000Y-131410000D01*
X153530000Y-126270000D02*
X153530000Y-131410000D01*
X150870000Y-126270000D02*
X153530000Y-126270000D01*
X150870000Y-125000000D02*
X150870000Y-123670000D01*
X150870000Y-123670000D02*
X152200000Y-123670000D01*
%TO.C,R1*%
X136545276Y-122977500D02*
X137054724Y-122977500D01*
X136545276Y-124022500D02*
X137054724Y-124022500D01*
%TO.C,R2*%
X146245276Y-130977500D02*
X146754724Y-130977500D01*
X146245276Y-132022500D02*
X146754724Y-132022500D01*
%TO.C,J1*%
X150870000Y-118410000D02*
X153530000Y-118410000D01*
X150870000Y-113270000D02*
X150870000Y-118410000D01*
X153530000Y-113270000D02*
X153530000Y-118410000D01*
X150870000Y-113270000D02*
X153530000Y-113270000D01*
X150870000Y-112000000D02*
X150870000Y-110670000D01*
X150870000Y-110670000D02*
X152200000Y-110670000D01*
%TO.C,R1*%
X136545276Y-109977500D02*
X137054724Y-109977500D01*
X136545276Y-111022500D02*
X137054724Y-111022500D01*
%TO.C,R2*%
X146245276Y-117977500D02*
X146754724Y-117977500D01*
X146245276Y-119022500D02*
X146754724Y-119022500D01*
%TO.C,J1*%
X150870000Y-105410000D02*
X153530000Y-105410000D01*
X150870000Y-100270000D02*
X150870000Y-105410000D01*
X153530000Y-100270000D02*
X153530000Y-105410000D01*
X150870000Y-100270000D02*
X153530000Y-100270000D01*
X150870000Y-99000000D02*
X150870000Y-97670000D01*
X150870000Y-97670000D02*
X152200000Y-97670000D01*
%TO.C,R1*%
X136545276Y-96977500D02*
X137054724Y-96977500D01*
X136545276Y-98022500D02*
X137054724Y-98022500D01*
%TO.C,R2*%
X146245276Y-104977500D02*
X146754724Y-104977500D01*
X146245276Y-106022500D02*
X146754724Y-106022500D01*
%TO.C,J1*%
X150870000Y-92410000D02*
X153530000Y-92410000D01*
X150870000Y-87270000D02*
X150870000Y-92410000D01*
X153530000Y-87270000D02*
X153530000Y-92410000D01*
X150870000Y-87270000D02*
X153530000Y-87270000D01*
X150870000Y-86000000D02*
X150870000Y-84670000D01*
X150870000Y-84670000D02*
X152200000Y-84670000D01*
%TO.C,R2*%
X146245276Y-91977500D02*
X146754724Y-91977500D01*
X146245276Y-93022500D02*
X146754724Y-93022500D01*
%TO.C,R1*%
X136545276Y-83977500D02*
X137054724Y-83977500D01*
X136545276Y-85022500D02*
X137054724Y-85022500D01*
%TO.C,*%
D10*
%TD*%
M02*
