%TF.GenerationSoftware,KiCad,Pcbnew,(5.1.10)-1*%
%TF.CreationDate,2021-10-07T19:24:08+02:00*%
%TF.ProjectId,output.KSI_rotator_endstop,6f757470-7574-42e4-9b53-495f726f7461,rev?*%
%TF.SameCoordinates,Original*%
%TF.FileFunction,Soldermask,Top*%
%TF.FilePolarity,Negative*%
%FSLAX46Y46*%
G04 Gerber Fmt 4.6, Leading zero omitted, Abs format (unit mm)*
G04 Created by KiCad (PCBNEW (5.1.10)-1) date 2021-10-07 19:24:08*
%MOMM*%
%LPD*%
G01*
G04 APERTURE LIST*
%ADD10C,3.300000*%
%ADD11C,1.300000*%
%ADD12R,1.300000X1.300000*%
%ADD13O,1.700000X1.700000*%
%ADD14R,1.700000X1.700000*%
%ADD15C,0.800000*%
G04 APERTURE END LIST*
D10*
%TO.C,U1*%
X147700000Y-153500000D03*
X128700000Y-153500000D03*
D11*
X142000000Y-154770000D03*
X142000000Y-152230000D03*
X134400000Y-154770000D03*
D12*
X134400000Y-152230000D03*
%TD*%
D10*
%TO.C,U1*%
X147700000Y-140500000D03*
X128700000Y-140500000D03*
D11*
X142000000Y-141770000D03*
X142000000Y-139230000D03*
X134400000Y-141770000D03*
D12*
X134400000Y-139230000D03*
%TD*%
D10*
%TO.C,U1*%
X147700000Y-127500000D03*
X128700000Y-127500000D03*
D11*
X142000000Y-128770000D03*
X142000000Y-126230000D03*
X134400000Y-128770000D03*
D12*
X134400000Y-126230000D03*
%TD*%
D10*
%TO.C,U1*%
X147700000Y-114500000D03*
X128700000Y-114500000D03*
D11*
X142000000Y-115770000D03*
X142000000Y-113230000D03*
X134400000Y-115770000D03*
D12*
X134400000Y-113230000D03*
%TD*%
D10*
%TO.C,U1*%
X147700000Y-101500000D03*
X128700000Y-101500000D03*
D11*
X142000000Y-102770000D03*
X142000000Y-100230000D03*
X134400000Y-102770000D03*
D12*
X134400000Y-100230000D03*
%TD*%
D10*
%TO.C,U1*%
X147700000Y-88500000D03*
X128700000Y-88500000D03*
D11*
X142000000Y-89770000D03*
X142000000Y-87230000D03*
X134400000Y-89770000D03*
D12*
X134400000Y-87230000D03*
%TD*%
D13*
%TO.C,J1*%
X152200000Y-156080000D03*
X152200000Y-153540000D03*
D14*
X152200000Y-151000000D03*
%TD*%
%TO.C,R1*%
G36*
G01*
X137225000Y-149737500D02*
X137225000Y-149262500D01*
G75*
G02*
X137462500Y-149025000I237500J0D01*
G01*
X137962500Y-149025000D01*
G75*
G02*
X138200000Y-149262500I0J-237500D01*
G01*
X138200000Y-149737500D01*
G75*
G02*
X137962500Y-149975000I-237500J0D01*
G01*
X137462500Y-149975000D01*
G75*
G02*
X137225000Y-149737500I0J237500D01*
G01*
G37*
G36*
G01*
X135400000Y-149737500D02*
X135400000Y-149262500D01*
G75*
G02*
X135637500Y-149025000I237500J0D01*
G01*
X136137500Y-149025000D01*
G75*
G02*
X136375000Y-149262500I0J-237500D01*
G01*
X136375000Y-149737500D01*
G75*
G02*
X136137500Y-149975000I-237500J0D01*
G01*
X135637500Y-149975000D01*
G75*
G02*
X135400000Y-149737500I0J237500D01*
G01*
G37*
%TD*%
%TO.C,R2*%
G36*
G01*
X146925000Y-157737500D02*
X146925000Y-157262500D01*
G75*
G02*
X147162500Y-157025000I237500J0D01*
G01*
X147662500Y-157025000D01*
G75*
G02*
X147900000Y-157262500I0J-237500D01*
G01*
X147900000Y-157737500D01*
G75*
G02*
X147662500Y-157975000I-237500J0D01*
G01*
X147162500Y-157975000D01*
G75*
G02*
X146925000Y-157737500I0J237500D01*
G01*
G37*
G36*
G01*
X145100000Y-157737500D02*
X145100000Y-157262500D01*
G75*
G02*
X145337500Y-157025000I237500J0D01*
G01*
X145837500Y-157025000D01*
G75*
G02*
X146075000Y-157262500I0J-237500D01*
G01*
X146075000Y-157737500D01*
G75*
G02*
X145837500Y-157975000I-237500J0D01*
G01*
X145337500Y-157975000D01*
G75*
G02*
X145100000Y-157737500I0J237500D01*
G01*
G37*
%TD*%
D13*
%TO.C,J1*%
X152200000Y-143080000D03*
X152200000Y-140540000D03*
D14*
X152200000Y-138000000D03*
%TD*%
%TO.C,R1*%
G36*
G01*
X137225000Y-136737500D02*
X137225000Y-136262500D01*
G75*
G02*
X137462500Y-136025000I237500J0D01*
G01*
X137962500Y-136025000D01*
G75*
G02*
X138200000Y-136262500I0J-237500D01*
G01*
X138200000Y-136737500D01*
G75*
G02*
X137962500Y-136975000I-237500J0D01*
G01*
X137462500Y-136975000D01*
G75*
G02*
X137225000Y-136737500I0J237500D01*
G01*
G37*
G36*
G01*
X135400000Y-136737500D02*
X135400000Y-136262500D01*
G75*
G02*
X135637500Y-136025000I237500J0D01*
G01*
X136137500Y-136025000D01*
G75*
G02*
X136375000Y-136262500I0J-237500D01*
G01*
X136375000Y-136737500D01*
G75*
G02*
X136137500Y-136975000I-237500J0D01*
G01*
X135637500Y-136975000D01*
G75*
G02*
X135400000Y-136737500I0J237500D01*
G01*
G37*
%TD*%
%TO.C,R2*%
G36*
G01*
X146925000Y-144737500D02*
X146925000Y-144262500D01*
G75*
G02*
X147162500Y-144025000I237500J0D01*
G01*
X147662500Y-144025000D01*
G75*
G02*
X147900000Y-144262500I0J-237500D01*
G01*
X147900000Y-144737500D01*
G75*
G02*
X147662500Y-144975000I-237500J0D01*
G01*
X147162500Y-144975000D01*
G75*
G02*
X146925000Y-144737500I0J237500D01*
G01*
G37*
G36*
G01*
X145100000Y-144737500D02*
X145100000Y-144262500D01*
G75*
G02*
X145337500Y-144025000I237500J0D01*
G01*
X145837500Y-144025000D01*
G75*
G02*
X146075000Y-144262500I0J-237500D01*
G01*
X146075000Y-144737500D01*
G75*
G02*
X145837500Y-144975000I-237500J0D01*
G01*
X145337500Y-144975000D01*
G75*
G02*
X145100000Y-144737500I0J237500D01*
G01*
G37*
%TD*%
D13*
%TO.C,J1*%
X152200000Y-130080000D03*
X152200000Y-127540000D03*
D14*
X152200000Y-125000000D03*
%TD*%
%TO.C,R1*%
G36*
G01*
X137225000Y-123737500D02*
X137225000Y-123262500D01*
G75*
G02*
X137462500Y-123025000I237500J0D01*
G01*
X137962500Y-123025000D01*
G75*
G02*
X138200000Y-123262500I0J-237500D01*
G01*
X138200000Y-123737500D01*
G75*
G02*
X137962500Y-123975000I-237500J0D01*
G01*
X137462500Y-123975000D01*
G75*
G02*
X137225000Y-123737500I0J237500D01*
G01*
G37*
G36*
G01*
X135400000Y-123737500D02*
X135400000Y-123262500D01*
G75*
G02*
X135637500Y-123025000I237500J0D01*
G01*
X136137500Y-123025000D01*
G75*
G02*
X136375000Y-123262500I0J-237500D01*
G01*
X136375000Y-123737500D01*
G75*
G02*
X136137500Y-123975000I-237500J0D01*
G01*
X135637500Y-123975000D01*
G75*
G02*
X135400000Y-123737500I0J237500D01*
G01*
G37*
%TD*%
%TO.C,R2*%
G36*
G01*
X146925000Y-131737500D02*
X146925000Y-131262500D01*
G75*
G02*
X147162500Y-131025000I237500J0D01*
G01*
X147662500Y-131025000D01*
G75*
G02*
X147900000Y-131262500I0J-237500D01*
G01*
X147900000Y-131737500D01*
G75*
G02*
X147662500Y-131975000I-237500J0D01*
G01*
X147162500Y-131975000D01*
G75*
G02*
X146925000Y-131737500I0J237500D01*
G01*
G37*
G36*
G01*
X145100000Y-131737500D02*
X145100000Y-131262500D01*
G75*
G02*
X145337500Y-131025000I237500J0D01*
G01*
X145837500Y-131025000D01*
G75*
G02*
X146075000Y-131262500I0J-237500D01*
G01*
X146075000Y-131737500D01*
G75*
G02*
X145837500Y-131975000I-237500J0D01*
G01*
X145337500Y-131975000D01*
G75*
G02*
X145100000Y-131737500I0J237500D01*
G01*
G37*
%TD*%
D13*
%TO.C,J1*%
X152200000Y-117080000D03*
X152200000Y-114540000D03*
D14*
X152200000Y-112000000D03*
%TD*%
%TO.C,R1*%
G36*
G01*
X137225000Y-110737500D02*
X137225000Y-110262500D01*
G75*
G02*
X137462500Y-110025000I237500J0D01*
G01*
X137962500Y-110025000D01*
G75*
G02*
X138200000Y-110262500I0J-237500D01*
G01*
X138200000Y-110737500D01*
G75*
G02*
X137962500Y-110975000I-237500J0D01*
G01*
X137462500Y-110975000D01*
G75*
G02*
X137225000Y-110737500I0J237500D01*
G01*
G37*
G36*
G01*
X135400000Y-110737500D02*
X135400000Y-110262500D01*
G75*
G02*
X135637500Y-110025000I237500J0D01*
G01*
X136137500Y-110025000D01*
G75*
G02*
X136375000Y-110262500I0J-237500D01*
G01*
X136375000Y-110737500D01*
G75*
G02*
X136137500Y-110975000I-237500J0D01*
G01*
X135637500Y-110975000D01*
G75*
G02*
X135400000Y-110737500I0J237500D01*
G01*
G37*
%TD*%
%TO.C,R2*%
G36*
G01*
X146925000Y-118737500D02*
X146925000Y-118262500D01*
G75*
G02*
X147162500Y-118025000I237500J0D01*
G01*
X147662500Y-118025000D01*
G75*
G02*
X147900000Y-118262500I0J-237500D01*
G01*
X147900000Y-118737500D01*
G75*
G02*
X147662500Y-118975000I-237500J0D01*
G01*
X147162500Y-118975000D01*
G75*
G02*
X146925000Y-118737500I0J237500D01*
G01*
G37*
G36*
G01*
X145100000Y-118737500D02*
X145100000Y-118262500D01*
G75*
G02*
X145337500Y-118025000I237500J0D01*
G01*
X145837500Y-118025000D01*
G75*
G02*
X146075000Y-118262500I0J-237500D01*
G01*
X146075000Y-118737500D01*
G75*
G02*
X145837500Y-118975000I-237500J0D01*
G01*
X145337500Y-118975000D01*
G75*
G02*
X145100000Y-118737500I0J237500D01*
G01*
G37*
%TD*%
D13*
%TO.C,J1*%
X152200000Y-104080000D03*
X152200000Y-101540000D03*
D14*
X152200000Y-99000000D03*
%TD*%
%TO.C,R1*%
G36*
G01*
X137225000Y-97737500D02*
X137225000Y-97262500D01*
G75*
G02*
X137462500Y-97025000I237500J0D01*
G01*
X137962500Y-97025000D01*
G75*
G02*
X138200000Y-97262500I0J-237500D01*
G01*
X138200000Y-97737500D01*
G75*
G02*
X137962500Y-97975000I-237500J0D01*
G01*
X137462500Y-97975000D01*
G75*
G02*
X137225000Y-97737500I0J237500D01*
G01*
G37*
G36*
G01*
X135400000Y-97737500D02*
X135400000Y-97262500D01*
G75*
G02*
X135637500Y-97025000I237500J0D01*
G01*
X136137500Y-97025000D01*
G75*
G02*
X136375000Y-97262500I0J-237500D01*
G01*
X136375000Y-97737500D01*
G75*
G02*
X136137500Y-97975000I-237500J0D01*
G01*
X135637500Y-97975000D01*
G75*
G02*
X135400000Y-97737500I0J237500D01*
G01*
G37*
%TD*%
%TO.C,R2*%
G36*
G01*
X146925000Y-105737500D02*
X146925000Y-105262500D01*
G75*
G02*
X147162500Y-105025000I237500J0D01*
G01*
X147662500Y-105025000D01*
G75*
G02*
X147900000Y-105262500I0J-237500D01*
G01*
X147900000Y-105737500D01*
G75*
G02*
X147662500Y-105975000I-237500J0D01*
G01*
X147162500Y-105975000D01*
G75*
G02*
X146925000Y-105737500I0J237500D01*
G01*
G37*
G36*
G01*
X145100000Y-105737500D02*
X145100000Y-105262500D01*
G75*
G02*
X145337500Y-105025000I237500J0D01*
G01*
X145837500Y-105025000D01*
G75*
G02*
X146075000Y-105262500I0J-237500D01*
G01*
X146075000Y-105737500D01*
G75*
G02*
X145837500Y-105975000I-237500J0D01*
G01*
X145337500Y-105975000D01*
G75*
G02*
X145100000Y-105737500I0J237500D01*
G01*
G37*
%TD*%
D13*
%TO.C,J1*%
X152200000Y-91080000D03*
X152200000Y-88540000D03*
D14*
X152200000Y-86000000D03*
%TD*%
%TO.C,R2*%
G36*
G01*
X146925000Y-92737500D02*
X146925000Y-92262500D01*
G75*
G02*
X147162500Y-92025000I237500J0D01*
G01*
X147662500Y-92025000D01*
G75*
G02*
X147900000Y-92262500I0J-237500D01*
G01*
X147900000Y-92737500D01*
G75*
G02*
X147662500Y-92975000I-237500J0D01*
G01*
X147162500Y-92975000D01*
G75*
G02*
X146925000Y-92737500I0J237500D01*
G01*
G37*
G36*
G01*
X145100000Y-92737500D02*
X145100000Y-92262500D01*
G75*
G02*
X145337500Y-92025000I237500J0D01*
G01*
X145837500Y-92025000D01*
G75*
G02*
X146075000Y-92262500I0J-237500D01*
G01*
X146075000Y-92737500D01*
G75*
G02*
X145837500Y-92975000I-237500J0D01*
G01*
X145337500Y-92975000D01*
G75*
G02*
X145100000Y-92737500I0J237500D01*
G01*
G37*
%TD*%
%TO.C,R1*%
G36*
G01*
X137225000Y-84737500D02*
X137225000Y-84262500D01*
G75*
G02*
X137462500Y-84025000I237500J0D01*
G01*
X137962500Y-84025000D01*
G75*
G02*
X138200000Y-84262500I0J-237500D01*
G01*
X138200000Y-84737500D01*
G75*
G02*
X137962500Y-84975000I-237500J0D01*
G01*
X137462500Y-84975000D01*
G75*
G02*
X137225000Y-84737500I0J237500D01*
G01*
G37*
G36*
G01*
X135400000Y-84737500D02*
X135400000Y-84262500D01*
G75*
G02*
X135637500Y-84025000I237500J0D01*
G01*
X136137500Y-84025000D01*
G75*
G02*
X136375000Y-84262500I0J-237500D01*
G01*
X136375000Y-84737500D01*
G75*
G02*
X136137500Y-84975000I-237500J0D01*
G01*
X135637500Y-84975000D01*
G75*
G02*
X135400000Y-84737500I0J237500D01*
G01*
G37*
%TD*%
D15*
%TO.C,*%
X139212232Y-119150000D03*
X140670741Y-119150000D03*
X142129250Y-119150000D03*
X143587759Y-119150000D03*
%TD*%
%TO.C,*%
X143587758Y-122850000D03*
X142129249Y-122850000D03*
X140670740Y-122850000D03*
X139212231Y-122850000D03*
%TD*%
%TO.C,*%
X139212232Y-132150000D03*
X140670741Y-132150000D03*
X142129250Y-132150000D03*
X143587759Y-132150000D03*
%TD*%
%TO.C,*%
X143587758Y-135850000D03*
X142129249Y-135850000D03*
X140670740Y-135850000D03*
X139212231Y-135850000D03*
%TD*%
%TO.C,*%
X139212232Y-145150000D03*
X140670741Y-145150000D03*
X142129250Y-145150000D03*
X143587759Y-145150000D03*
%TD*%
%TO.C,*%
X143587758Y-148850000D03*
X142129249Y-148850000D03*
X140670740Y-148850000D03*
X139212231Y-148850000D03*
%TD*%
%TO.C,*%
X139312252Y-93150000D03*
X140770754Y-93150000D03*
X142229256Y-93150000D03*
X143687758Y-93150000D03*
%TD*%
%TO.C,*%
X143687748Y-96850000D03*
X142229246Y-96850000D03*
X140770744Y-96850000D03*
X139312242Y-96850000D03*
%TD*%
%TO.C,*%
X139212232Y-106150000D03*
X140670741Y-106150000D03*
X142129250Y-106150000D03*
X143587759Y-106150000D03*
%TD*%
%TO.C,*%
X143587758Y-109850000D03*
X142129249Y-109850000D03*
X140670740Y-109850000D03*
X139212231Y-109850000D03*
%TD*%
M02*
