M48
; DRILL file {KiCad (5.1.10)-1} date 10/07/21 19:24:09
; FORMAT={-:-/ absolute / metric / decimal}
; #@! TF.CreationDate,2021-10-07T19:24:09+02:00
; #@! TF.GenerationSoftware,Kicad,Pcbnew,(5.1.10)-1
FMAT,2
METRIC
T1C0.400
T2C0.800
T3C1.000
T4C0.800
T5C3.300
%
G90
G05
T1
X127.1Y-84.8
X127.1Y-92.1
X127.1Y-97.8
X127.1Y-105.1
X127.1Y-110.8
X127.1Y-118.1
X127.1Y-123.8
X127.1Y-131.1
X127.1Y-136.8
X127.1Y-144.1
X127.1Y-149.8
X127.1Y-157.1
X149.7Y-85.7
X149.7Y-98.7
X149.7Y-111.7
X149.7Y-124.7
X149.7Y-137.7
X149.7Y-150.7
X149.9Y-92.4
X149.9Y-105.4
X149.9Y-118.4
X149.9Y-131.4
X149.9Y-144.4
X149.9Y-157.4
T2
X134.4Y-87.23
X134.4Y-89.77
X134.4Y-100.23
X134.4Y-102.77
X134.4Y-113.23
X134.4Y-115.77
X134.4Y-126.23
X134.4Y-128.77
X134.4Y-139.23
X134.4Y-141.77
X134.4Y-152.23
X134.4Y-154.77
X142.0Y-87.23
X142.0Y-89.77
X142.0Y-100.23
X142.0Y-102.77
X142.0Y-113.23
X142.0Y-115.77
X142.0Y-126.23
X142.0Y-128.77
X142.0Y-139.23
X142.0Y-141.77
X142.0Y-152.23
X142.0Y-154.77
T3
X152.2Y-86.0
X152.2Y-88.54
X152.2Y-91.08
X152.2Y-99.0
X152.2Y-101.54
X152.2Y-104.08
X152.2Y-112.0
X152.2Y-114.54
X152.2Y-117.08
X152.2Y-125.0
X152.2Y-127.54
X152.2Y-130.08
X152.2Y-138.0
X152.2Y-140.54
X152.2Y-143.08
X152.2Y-151.0
X152.2Y-153.54
X152.2Y-156.08
T4
X139.212Y-109.85
X139.212Y-122.85
X139.212Y-135.85
X139.212Y-148.85
X139.212Y-106.15
X139.212Y-119.15
X139.212Y-132.15
X139.212Y-145.15
X139.312Y-96.85
X139.312Y-93.15
X140.671Y-109.85
X140.671Y-122.85
X140.671Y-135.85
X140.671Y-148.85
X140.671Y-106.15
X140.671Y-119.15
X140.671Y-132.15
X140.671Y-145.15
X140.771Y-96.85
X140.771Y-93.15
X142.129Y-109.85
X142.129Y-122.85
X142.129Y-135.85
X142.129Y-148.85
X142.129Y-106.15
X142.129Y-119.15
X142.129Y-132.15
X142.129Y-145.15
X142.229Y-96.85
X142.229Y-93.15
X143.588Y-109.85
X143.588Y-122.85
X143.588Y-135.85
X143.588Y-148.85
X143.588Y-106.15
X143.588Y-119.15
X143.588Y-132.15
X143.588Y-145.15
X143.688Y-96.85
X143.688Y-93.15
T5
X128.7Y-88.5
X128.7Y-101.5
X128.7Y-114.5
X128.7Y-127.5
X128.7Y-140.5
X128.7Y-153.5
X147.7Y-88.5
X147.7Y-101.5
X147.7Y-114.5
X147.7Y-127.5
X147.7Y-140.5
X147.7Y-153.5
T0
M30
