%TF.GenerationSoftware,KiCad,Pcbnew,(5.1.10)-1*%
%TF.CreationDate,2021-10-07T19:24:08+02:00*%
%TF.ProjectId,output.KSI_rotator_endstop,6f757470-7574-42e4-9b53-495f726f7461,rev?*%
%TF.SameCoordinates,Original*%
%TF.FileFunction,Soldermask,Bot*%
%TF.FilePolarity,Negative*%
%FSLAX46Y46*%
G04 Gerber Fmt 4.6, Leading zero omitted, Abs format (unit mm)*
G04 Created by KiCad (PCBNEW (5.1.10)-1) date 2021-10-07 19:24:08*
%MOMM*%
%LPD*%
G01*
G04 APERTURE LIST*
%ADD10C,3.300000*%
%ADD11C,1.300000*%
%ADD12R,1.300000X1.300000*%
%ADD13O,1.700000X1.700000*%
%ADD14R,1.700000X1.700000*%
%ADD15C,0.800000*%
G04 APERTURE END LIST*
D10*
%TO.C,U1*%
X147700000Y-153500000D03*
X128700000Y-153500000D03*
D11*
X142000000Y-154770000D03*
X142000000Y-152230000D03*
X134400000Y-154770000D03*
D12*
X134400000Y-152230000D03*
%TD*%
D10*
%TO.C,U1*%
X147700000Y-140500000D03*
X128700000Y-140500000D03*
D11*
X142000000Y-141770000D03*
X142000000Y-139230000D03*
X134400000Y-141770000D03*
D12*
X134400000Y-139230000D03*
%TD*%
D10*
%TO.C,U1*%
X147700000Y-127500000D03*
X128700000Y-127500000D03*
D11*
X142000000Y-128770000D03*
X142000000Y-126230000D03*
X134400000Y-128770000D03*
D12*
X134400000Y-126230000D03*
%TD*%
D10*
%TO.C,U1*%
X147700000Y-114500000D03*
X128700000Y-114500000D03*
D11*
X142000000Y-115770000D03*
X142000000Y-113230000D03*
X134400000Y-115770000D03*
D12*
X134400000Y-113230000D03*
%TD*%
D10*
%TO.C,U1*%
X147700000Y-101500000D03*
X128700000Y-101500000D03*
D11*
X142000000Y-102770000D03*
X142000000Y-100230000D03*
X134400000Y-102770000D03*
D12*
X134400000Y-100230000D03*
%TD*%
D10*
%TO.C,U1*%
X147700000Y-88500000D03*
X128700000Y-88500000D03*
D11*
X142000000Y-89770000D03*
X142000000Y-87230000D03*
X134400000Y-89770000D03*
D12*
X134400000Y-87230000D03*
%TD*%
D13*
%TO.C,J1*%
X152200000Y-156080000D03*
X152200000Y-153540000D03*
D14*
X152200000Y-151000000D03*
%TD*%
D13*
%TO.C,J1*%
X152200000Y-143080000D03*
X152200000Y-140540000D03*
D14*
X152200000Y-138000000D03*
%TD*%
D13*
%TO.C,J1*%
X152200000Y-130080000D03*
X152200000Y-127540000D03*
D14*
X152200000Y-125000000D03*
%TD*%
D13*
%TO.C,J1*%
X152200000Y-117080000D03*
X152200000Y-114540000D03*
D14*
X152200000Y-112000000D03*
%TD*%
D13*
%TO.C,J1*%
X152200000Y-104080000D03*
X152200000Y-101540000D03*
D14*
X152200000Y-99000000D03*
%TD*%
D13*
%TO.C,J1*%
X152200000Y-91080000D03*
X152200000Y-88540000D03*
D14*
X152200000Y-86000000D03*
%TD*%
D15*
%TO.C,*%
X139212232Y-119150000D03*
X140670741Y-119150000D03*
X142129250Y-119150000D03*
X143587759Y-119150000D03*
%TD*%
%TO.C,*%
X143587758Y-122850000D03*
X142129249Y-122850000D03*
X140670740Y-122850000D03*
X139212231Y-122850000D03*
%TD*%
%TO.C,*%
X139212232Y-132150000D03*
X140670741Y-132150000D03*
X142129250Y-132150000D03*
X143587759Y-132150000D03*
%TD*%
%TO.C,*%
X143587758Y-135850000D03*
X142129249Y-135850000D03*
X140670740Y-135850000D03*
X139212231Y-135850000D03*
%TD*%
%TO.C,*%
X139212232Y-145150000D03*
X140670741Y-145150000D03*
X142129250Y-145150000D03*
X143587759Y-145150000D03*
%TD*%
%TO.C,*%
X143587758Y-148850000D03*
X142129249Y-148850000D03*
X140670740Y-148850000D03*
X139212231Y-148850000D03*
%TD*%
%TO.C,*%
X139312252Y-93150000D03*
X140770754Y-93150000D03*
X142229256Y-93150000D03*
X143687758Y-93150000D03*
%TD*%
%TO.C,*%
X143687748Y-96850000D03*
X142229246Y-96850000D03*
X140770744Y-96850000D03*
X139312242Y-96850000D03*
%TD*%
%TO.C,*%
X139212232Y-106150000D03*
X140670741Y-106150000D03*
X142129250Y-106150000D03*
X143587759Y-106150000D03*
%TD*%
%TO.C,*%
X143587758Y-109850000D03*
X142129249Y-109850000D03*
X140670740Y-109850000D03*
X139212231Y-109850000D03*
%TD*%
M02*
