M48
; DRILL file {KiCad (5.1.10)-1} date 10/11/21 18:25:41
; FORMAT={-:-/ absolute / metric / decimal}
; #@! TF.CreationDate,2021-10-11T18:25:41+02:00
; #@! TF.GenerationSoftware,Kicad,Pcbnew,(5.1.10)-1
; #@! TF.FileFunction,Plated,1,2,PTH
FMAT,2
METRIC
T1C0.400
T2C0.500
T3C0.600
T4C0.800
T5C0.920
T6C1.000
T7C1.400
T8C2.330
T9C3.200
%
G90
G05
T1
X-35.0Y35.0
X-35.0Y25.0
X-35.0Y15.0
X-35.0Y5.0
X-35.0Y-10.0
X-35.0Y-30.0
X-30.0Y10.0
X-30.0Y0.0
X-28.4Y-13.9
X-28.4Y-19.95
X-28.4Y-23.6
X-25.3Y-10.8
X-25.3Y-11.6
X-25.3Y-19.8
X-25.3Y-20.6
X-25.25Y-23.7
X-25.0Y35.0
X-25.0Y5.0
X-25.0Y-5.0
X-25.0Y-30.0
X-20.1Y-9.75
X-20.1Y-16.05
X-20.0Y25.0
X-20.0Y10.0
X-20.0Y-35.0
X-15.0Y35.0
X-15.0Y25.0
X-15.0Y5.0
X-15.0Y-5.0
X-15.0Y-15.0
X-15.0Y-25.0
X-10.0Y10.0
X-10.0Y0.0
X-10.0Y-10.0
X-10.0Y-20.0
X-10.0Y-30.0
X-5.0Y30.0
X-5.0Y20.0
X-5.0Y5.0
X-5.0Y-5.0
X-5.0Y-15.0
X-5.0Y-25.0
X0.0Y10.0
X5.0Y25.0
X10.0Y30.0
X10.0Y20.0
X10.0Y10.0
X10.0Y0.0
X10.0Y-10.0
X10.0Y-20.0
X10.0Y-30.0
T2
X-21.65Y20.75
X-20.65Y20.75
X-13.6Y13.7
X-11.6Y13.7
X-9.6Y13.7
X-7.6Y13.7
T3
X14.95Y31.55
X16.45Y31.55
T4
X-5.6Y13.7
X5.48Y22.67
X5.48Y20.13
X5.48Y17.59
X5.48Y15.05
X5.48Y12.51
X5.48Y9.97
X5.48Y7.43
X5.48Y4.89
X5.48Y-12.89
X5.48Y-15.43
X5.48Y-17.97
X5.48Y-20.51
X5.48Y-23.05
X5.48Y-25.59
X5.48Y-28.13
X5.48Y-30.67
X18.18Y22.67
X18.18Y20.13
X18.18Y17.59
X18.18Y15.05
X18.18Y12.51
X18.18Y9.97
X18.18Y7.43
X18.18Y4.89
X18.18Y-12.89
X18.18Y-15.43
X18.18Y-17.97
X18.18Y-20.51
X18.18Y-23.05
X18.18Y-25.59
X18.18Y-28.13
X18.18Y-30.67
T5
X-25.432Y14.538
X-25.432Y12.038
X-23.432Y14.538
X-23.432Y12.038
T6
X-33.5Y-1.0
X-33.5Y-3.54
X-33.5Y-6.08
X-33.5Y-8.62
X-33.5Y-15.0
X-33.5Y-17.54
X-33.5Y-20.08
X-33.5Y-22.62
X-30.96Y-15.0
X-30.96Y-17.54
X-30.96Y-20.08
X-30.96Y-22.62
X-17.24Y5.56
X-17.24Y3.02
X-17.24Y0.48
X-17.24Y-2.06
X-17.24Y-4.6
X-17.24Y-7.14
X-17.24Y-9.68
X-17.24Y-12.22
X-17.24Y-14.76
X-17.24Y-17.3
X-17.24Y-19.84
X-17.24Y-22.38
X-17.24Y-24.92
X-17.24Y-27.46
X-17.24Y-30.0
X-2.0Y5.56
X-2.0Y3.02
X-2.0Y0.48
X-2.0Y-2.06
X-2.0Y-4.6
X-2.0Y-7.14
X-2.0Y-9.68
X-2.0Y-12.22
X-2.0Y-14.76
X-2.0Y-17.3
X-2.0Y-19.84
X-2.0Y-22.38
X-2.0Y-24.92
X-2.0Y-27.46
X-2.0Y-30.0
T7
X25.8Y23.94
X25.8Y18.86
X25.8Y13.78
X25.8Y8.7
X25.8Y3.62
X25.8Y-11.62
X25.8Y-16.7
X25.8Y-21.78
X25.8Y-26.86
X25.8Y-31.94
T8
X-28.142Y19.308
X-28.142Y7.268
T9
X-32.0Y-32.0
T4
G00X-30.572Y30.95
M15
G01X-30.572Y28.75
M16
G05
G00X-28.872Y25.05
M15
G01X-26.672Y25.05
M16
G05
G00X-24.772Y31.15
M15
G01X-24.772Y28.55
M16
G05
T0
M30
