%TF.GenerationSoftware,KiCad,Pcbnew,(5.1.10)-1*%
%TF.CreationDate,2021-10-11T18:25:39+02:00*%
%TF.ProjectId,KSIrotator,4b534972-6f74-4617-946f-722e6b696361,rev?*%
%TF.SameCoordinates,PX8f0d180PY5f5e100*%
%TF.FileFunction,Soldermask,Bot*%
%TF.FilePolarity,Negative*%
%FSLAX46Y46*%
G04 Gerber Fmt 4.6, Leading zero omitted, Abs format (unit mm)*
G04 Created by KiCad (PCBNEW (5.1.10)-1) date 2021-10-11 18:25:39*
%MOMM*%
%LPD*%
G01*
G04 APERTURE LIST*
%ADD10C,3.200000*%
%ADD11C,5.600000*%
%ADD12O,1.700000X1.700000*%
%ADD13R,1.700000X1.700000*%
%ADD14O,1.000000X1.400000*%
%ADD15R,1.350000X1.350000*%
%ADD16R,0.800000X0.900000*%
%ADD17R,1.800000X4.400000*%
%ADD18O,1.800000X4.000000*%
%ADD19O,4.000000X1.800000*%
%ADD20O,3.600000X2.080000*%
%ADD21C,3.500000*%
%ADD22C,1.700000*%
%ADD23R,1.600000X1.600000*%
%ADD24O,1.600000X1.600000*%
G04 APERTURE END LIST*
D10*
%TO.C,H2*%
X32000000Y32000000D03*
%TD*%
D11*
%TO.C,H1*%
X-32000000Y-32000000D03*
%TD*%
D12*
%TO.C,J3*%
X-30960000Y-22620000D03*
X-33500000Y-22620000D03*
X-30960000Y-20080000D03*
X-33500000Y-20080000D03*
X-30960000Y-17540000D03*
X-33500000Y-17540000D03*
X-30960000Y-15000000D03*
D13*
X-33500000Y-15000000D03*
%TD*%
D12*
%TO.C,J2*%
X-33500000Y-8620000D03*
X-33500000Y-6080000D03*
X-33500000Y-3540000D03*
D13*
X-33500000Y-1000000D03*
%TD*%
D14*
%TO.C,J5*%
X-13600000Y13700000D03*
X-11600000Y13700000D03*
X-9600000Y13700000D03*
X-7600000Y13700000D03*
D15*
X-5600000Y13700000D03*
%TD*%
D16*
%TO.C,C18*%
X18346000Y-10350000D03*
X20046000Y-10350000D03*
%TD*%
%TO.C,C17*%
X18346000Y-8318000D03*
X20046000Y-8318000D03*
%TD*%
%TO.C,C13*%
X18346000Y25210000D03*
X20046000Y25210000D03*
%TD*%
%TO.C,C12*%
X18346000Y27242000D03*
X20046000Y27242000D03*
%TD*%
D17*
%TO.C,J4*%
X-24772000Y29850000D03*
D18*
X-30572000Y29850000D03*
D19*
X-27772000Y25050000D03*
%TD*%
%TO.C,C16*%
G36*
G01*
X23582000Y-5399999D02*
X23582000Y-2600001D01*
G75*
G02*
X23832001Y-2350000I250001J0D01*
G01*
X25506999Y-2350000D01*
G75*
G02*
X25757000Y-2600001I0J-250001D01*
G01*
X25757000Y-5399999D01*
G75*
G02*
X25506999Y-5650000I-250001J0D01*
G01*
X23832001Y-5650000D01*
G75*
G02*
X23582000Y-5399999I0J250001D01*
G01*
G37*
G36*
G01*
X17207000Y-5399999D02*
X17207000Y-2600001D01*
G75*
G02*
X17457001Y-2350000I250001J0D01*
G01*
X19131999Y-2350000D01*
G75*
G02*
X19382000Y-2600001I0J-250001D01*
G01*
X19382000Y-5399999D01*
G75*
G02*
X19131999Y-5650000I-250001J0D01*
G01*
X17457001Y-5650000D01*
G75*
G02*
X17207000Y-5399999I0J250001D01*
G01*
G37*
%TD*%
%TO.C,C11*%
G36*
G01*
X23582000Y30160001D02*
X23582000Y32959999D01*
G75*
G02*
X23832001Y33210000I250001J0D01*
G01*
X25506999Y33210000D01*
G75*
G02*
X25757000Y32959999I0J-250001D01*
G01*
X25757000Y30160001D01*
G75*
G02*
X25506999Y29910000I-250001J0D01*
G01*
X23832001Y29910000D01*
G75*
G02*
X23582000Y30160001I0J250001D01*
G01*
G37*
G36*
G01*
X17207000Y30160001D02*
X17207000Y32959999D01*
G75*
G02*
X17457001Y33210000I250001J0D01*
G01*
X19131999Y33210000D01*
G75*
G02*
X19382000Y32959999I0J-250001D01*
G01*
X19382000Y30160001D01*
G75*
G02*
X19131999Y29910000I-250001J0D01*
G01*
X17457001Y29910000D01*
G75*
G02*
X17207000Y30160001I0J250001D01*
G01*
G37*
%TD*%
%TO.C,J7*%
G36*
G01*
X27350001Y-32980000D02*
X24249999Y-32980000D01*
G75*
G02*
X24000000Y-32730001I0J249999D01*
G01*
X24000000Y-31149999D01*
G75*
G02*
X24249999Y-30900000I249999J0D01*
G01*
X27350001Y-30900000D01*
G75*
G02*
X27600000Y-31149999I0J-249999D01*
G01*
X27600000Y-32730001D01*
G75*
G02*
X27350001Y-32980000I-249999J0D01*
G01*
G37*
D20*
X25800000Y-26860000D03*
X25800000Y-21780000D03*
X25800000Y-16700000D03*
X25800000Y-11620000D03*
%TD*%
%TO.C,J6*%
G36*
G01*
X27350001Y2580000D02*
X24249999Y2580000D01*
G75*
G02*
X24000000Y2829999I0J249999D01*
G01*
X24000000Y4410001D01*
G75*
G02*
X24249999Y4660000I249999J0D01*
G01*
X27350001Y4660000D01*
G75*
G02*
X27600000Y4410001I0J-249999D01*
G01*
X27600000Y2829999D01*
G75*
G02*
X27350001Y2580000I-249999J0D01*
G01*
G37*
X25800000Y8700000D03*
X25800000Y13780000D03*
X25800000Y18860000D03*
X25800000Y23940000D03*
%TD*%
D21*
%TO.C,J1*%
X-28142000Y19308000D03*
X-28142000Y7268000D03*
D22*
X-25432000Y12038000D03*
X-25432000Y14538000D03*
X-23432000Y14538000D03*
D13*
X-23432000Y12038000D03*
%TD*%
D23*
%TO.C,A3*%
X18180000Y-30670000D03*
D24*
X5480000Y-12890000D03*
X18180000Y-28130000D03*
X5480000Y-15430000D03*
X18180000Y-25590000D03*
X5480000Y-17970000D03*
X18180000Y-23050000D03*
X5480000Y-20510000D03*
X18180000Y-20510000D03*
X5480000Y-23050000D03*
X18180000Y-17970000D03*
X5480000Y-25590000D03*
X18180000Y-15430000D03*
X5480000Y-28130000D03*
X18180000Y-12890000D03*
X5480000Y-30670000D03*
%TD*%
D23*
%TO.C,A2*%
X18180000Y4890000D03*
D24*
X5480000Y22670000D03*
X18180000Y7430000D03*
X5480000Y20130000D03*
X18180000Y9970000D03*
X5480000Y17590000D03*
X18180000Y12510000D03*
X5480000Y15050000D03*
X18180000Y15050000D03*
X5480000Y12510000D03*
X18180000Y17590000D03*
X5480000Y9970000D03*
X18180000Y20130000D03*
X5480000Y7430000D03*
X18180000Y22670000D03*
X5480000Y4890000D03*
%TD*%
%TO.C,A1*%
X-17240000Y5560000D03*
X-2000000Y5560000D03*
X-17240000Y-30000000D03*
X-2000000Y3020000D03*
X-17240000Y-27460000D03*
X-2000000Y480000D03*
X-17240000Y-24920000D03*
X-2000000Y-2060000D03*
X-17240000Y-22380000D03*
X-2000000Y-4600000D03*
X-17240000Y-19840000D03*
X-2000000Y-7140000D03*
X-17240000Y-17300000D03*
X-2000000Y-9680000D03*
X-17240000Y-14760000D03*
X-2000000Y-12220000D03*
X-17240000Y-12220000D03*
X-2000000Y-14760000D03*
X-17240000Y-9680000D03*
X-2000000Y-17300000D03*
X-17240000Y-7140000D03*
X-2000000Y-19840000D03*
X-17240000Y-4600000D03*
X-2000000Y-22380000D03*
X-17240000Y-2060000D03*
X-2000000Y-24920000D03*
X-17240000Y480000D03*
X-2000000Y-27460000D03*
X-17240000Y3020000D03*
D23*
X-2000000Y-30000000D03*
%TD*%
M02*
