%TF.GenerationSoftware,KiCad,Pcbnew,(5.1.10)-1*%
%TF.CreationDate,2021-10-11T18:25:39+02:00*%
%TF.ProjectId,KSIrotator,4b534972-6f74-4617-946f-722e6b696361,rev?*%
%TF.SameCoordinates,PX8f0d180PY5f5e100*%
%TF.FileFunction,Soldermask,Top*%
%TF.FilePolarity,Negative*%
%FSLAX46Y46*%
G04 Gerber Fmt 4.6, Leading zero omitted, Abs format (unit mm)*
G04 Created by KiCad (PCBNEW (5.1.10)-1) date 2021-10-11 18:25:39*
%MOMM*%
%LPD*%
G01*
G04 APERTURE LIST*
%ADD10C,3.200000*%
%ADD11C,5.600000*%
%ADD12O,1.700000X1.700000*%
%ADD13R,1.700000X1.700000*%
%ADD14R,0.800000X0.900000*%
%ADD15R,0.900000X0.800000*%
%ADD16O,1.000000X1.400000*%
%ADD17R,1.350000X1.350000*%
%ADD18R,1.000000X1.350000*%
%ADD19R,1.800000X4.400000*%
%ADD20O,1.800000X4.000000*%
%ADD21O,4.000000X1.800000*%
%ADD22O,3.600000X2.080000*%
%ADD23R,2.000000X1.550000*%
%ADD24R,1.500000X2.000000*%
%ADD25R,3.800000X2.000000*%
%ADD26R,2.000000X1.800000*%
%ADD27R,1.000000X2.500000*%
%ADD28C,3.500000*%
%ADD29C,1.700000*%
%ADD30R,1.060000X0.650000*%
%ADD31R,1.600000X1.600000*%
%ADD32O,1.600000X1.600000*%
G04 APERTURE END LIST*
D10*
%TO.C,H2*%
X32000000Y32000000D03*
%TD*%
D11*
%TO.C,H1*%
X-32000000Y-32000000D03*
%TD*%
D12*
%TO.C,J3*%
X-30960000Y-22620000D03*
X-33500000Y-22620000D03*
X-30960000Y-20080000D03*
X-33500000Y-20080000D03*
X-30960000Y-17540000D03*
X-33500000Y-17540000D03*
X-30960000Y-15000000D03*
D13*
X-33500000Y-15000000D03*
%TD*%
%TO.C,U3*%
G36*
G01*
X-22895000Y-21000000D02*
X-22595000Y-21000000D01*
G75*
G02*
X-22445000Y-21150000I0J-150000D01*
G01*
X-22445000Y-22450000D01*
G75*
G02*
X-22595000Y-22600000I-150000J0D01*
G01*
X-22895000Y-22600000D01*
G75*
G02*
X-23045000Y-22450000I0J150000D01*
G01*
X-23045000Y-21150000D01*
G75*
G02*
X-22895000Y-21000000I150000J0D01*
G01*
G37*
G36*
G01*
X-24165000Y-21000000D02*
X-23865000Y-21000000D01*
G75*
G02*
X-23715000Y-21150000I0J-150000D01*
G01*
X-23715000Y-22450000D01*
G75*
G02*
X-23865000Y-22600000I-150000J0D01*
G01*
X-24165000Y-22600000D01*
G75*
G02*
X-24315000Y-22450000I0J150000D01*
G01*
X-24315000Y-21150000D01*
G75*
G02*
X-24165000Y-21000000I150000J0D01*
G01*
G37*
G36*
G01*
X-25435000Y-21000000D02*
X-25135000Y-21000000D01*
G75*
G02*
X-24985000Y-21150000I0J-150000D01*
G01*
X-24985000Y-22450000D01*
G75*
G02*
X-25135000Y-22600000I-150000J0D01*
G01*
X-25435000Y-22600000D01*
G75*
G02*
X-25585000Y-22450000I0J150000D01*
G01*
X-25585000Y-21150000D01*
G75*
G02*
X-25435000Y-21000000I150000J0D01*
G01*
G37*
G36*
G01*
X-26705000Y-21000000D02*
X-26405000Y-21000000D01*
G75*
G02*
X-26255000Y-21150000I0J-150000D01*
G01*
X-26255000Y-22450000D01*
G75*
G02*
X-26405000Y-22600000I-150000J0D01*
G01*
X-26705000Y-22600000D01*
G75*
G02*
X-26855000Y-22450000I0J150000D01*
G01*
X-26855000Y-21150000D01*
G75*
G02*
X-26705000Y-21000000I150000J0D01*
G01*
G37*
G36*
G01*
X-26705000Y-13800000D02*
X-26405000Y-13800000D01*
G75*
G02*
X-26255000Y-13950000I0J-150000D01*
G01*
X-26255000Y-15250000D01*
G75*
G02*
X-26405000Y-15400000I-150000J0D01*
G01*
X-26705000Y-15400000D01*
G75*
G02*
X-26855000Y-15250000I0J150000D01*
G01*
X-26855000Y-13950000D01*
G75*
G02*
X-26705000Y-13800000I150000J0D01*
G01*
G37*
G36*
G01*
X-25435000Y-13800000D02*
X-25135000Y-13800000D01*
G75*
G02*
X-24985000Y-13950000I0J-150000D01*
G01*
X-24985000Y-15250000D01*
G75*
G02*
X-25135000Y-15400000I-150000J0D01*
G01*
X-25435000Y-15400000D01*
G75*
G02*
X-25585000Y-15250000I0J150000D01*
G01*
X-25585000Y-13950000D01*
G75*
G02*
X-25435000Y-13800000I150000J0D01*
G01*
G37*
G36*
G01*
X-24165000Y-13800000D02*
X-23865000Y-13800000D01*
G75*
G02*
X-23715000Y-13950000I0J-150000D01*
G01*
X-23715000Y-15250000D01*
G75*
G02*
X-23865000Y-15400000I-150000J0D01*
G01*
X-24165000Y-15400000D01*
G75*
G02*
X-24315000Y-15250000I0J150000D01*
G01*
X-24315000Y-13950000D01*
G75*
G02*
X-24165000Y-13800000I150000J0D01*
G01*
G37*
G36*
G01*
X-22895000Y-13800000D02*
X-22595000Y-13800000D01*
G75*
G02*
X-22445000Y-13950000I0J-150000D01*
G01*
X-22445000Y-15250000D01*
G75*
G02*
X-22595000Y-15400000I-150000J0D01*
G01*
X-22895000Y-15400000D01*
G75*
G02*
X-23045000Y-15250000I0J150000D01*
G01*
X-23045000Y-13950000D01*
G75*
G02*
X-22895000Y-13800000I150000J0D01*
G01*
G37*
%TD*%
D14*
%TO.C,R6*%
X-22750000Y-23700000D03*
X-24450000Y-23700000D03*
%TD*%
D15*
%TO.C,R5*%
X-28400000Y-19150000D03*
X-28400000Y-17450000D03*
%TD*%
%TO.C,R4*%
X-28400000Y-21100000D03*
X-28400000Y-22800000D03*
%TD*%
%TO.C,R3*%
X-28400000Y-14700000D03*
X-28400000Y-16400000D03*
%TD*%
%TO.C,R2*%
X-20100000Y-13550000D03*
X-20100000Y-15250000D03*
%TD*%
%TO.C,R1*%
X-20100000Y-10550000D03*
X-20100000Y-12250000D03*
%TD*%
D14*
%TO.C,C8*%
X-27000000Y-12600000D03*
X-25300000Y-12600000D03*
%TD*%
D12*
%TO.C,J2*%
X-33500000Y-8620000D03*
X-33500000Y-6080000D03*
X-33500000Y-3540000D03*
D13*
X-33500000Y-1000000D03*
%TD*%
D16*
%TO.C,J5*%
X-13600000Y13700000D03*
X-11600000Y13700000D03*
X-9600000Y13700000D03*
X-7600000Y13700000D03*
D17*
X-5600000Y13700000D03*
%TD*%
D14*
%TO.C,R8*%
X-6100000Y31950000D03*
X-4400000Y31950000D03*
%TD*%
%TO.C,R7*%
X-8850000Y31950000D03*
X-7150000Y31950000D03*
%TD*%
D15*
%TO.C,R10*%
X3000000Y-17169000D03*
X3000000Y-15469000D03*
%TD*%
%TO.C,R9*%
X3000000Y18391000D03*
X3000000Y20091000D03*
%TD*%
%TO.C,C4*%
X-14750000Y28200000D03*
X-14750000Y29900000D03*
%TD*%
%TO.C,C3*%
X-16200000Y28200000D03*
X-16200000Y29900000D03*
%TD*%
%TO.C,C6*%
X-4400000Y25300000D03*
X-4400000Y23600000D03*
%TD*%
%TO.C,C5*%
X-13350000Y28200000D03*
X-13350000Y29900000D03*
%TD*%
%TO.C,C2*%
X-14650000Y22450000D03*
X-14650000Y20750000D03*
%TD*%
%TO.C,C1*%
X-19700000Y20750000D03*
X-19700000Y22450000D03*
%TD*%
D14*
%TO.C,C15*%
X22050000Y-30000000D03*
X20350000Y-30000000D03*
%TD*%
%TO.C,C14*%
X22050000Y-31400000D03*
X20350000Y-31400000D03*
%TD*%
%TO.C,C10*%
X22050000Y5600000D03*
X20350000Y5600000D03*
%TD*%
%TO.C,C9*%
X22050000Y4200000D03*
X20350000Y4200000D03*
%TD*%
D18*
%TO.C,L1*%
X-18208000Y20752000D03*
X-16108000Y20752000D03*
%TD*%
D19*
%TO.C,J4*%
X-24772000Y29850000D03*
D20*
X-30572000Y29850000D03*
D21*
X-27772000Y25050000D03*
%TD*%
%TO.C,C7*%
G36*
G01*
X1149999Y28900000D02*
X-1649999Y28900000D01*
G75*
G02*
X-1900000Y29150001I0J250001D01*
G01*
X-1900000Y30824999D01*
G75*
G02*
X-1649999Y31075000I250001J0D01*
G01*
X1149999Y31075000D01*
G75*
G02*
X1400000Y30824999I0J-250001D01*
G01*
X1400000Y29150001D01*
G75*
G02*
X1149999Y28900000I-250001J0D01*
G01*
G37*
G36*
G01*
X1149999Y22525000D02*
X-1649999Y22525000D01*
G75*
G02*
X-1900000Y22775001I0J250001D01*
G01*
X-1900000Y24449999D01*
G75*
G02*
X-1649999Y24700000I250001J0D01*
G01*
X1149999Y24700000D01*
G75*
G02*
X1400000Y24449999I0J-250001D01*
G01*
X1400000Y22775001D01*
G75*
G02*
X1149999Y22525000I-250001J0D01*
G01*
G37*
%TD*%
%TO.C,J7*%
G36*
G01*
X27350001Y-32980000D02*
X24249999Y-32980000D01*
G75*
G02*
X24000000Y-32730001I0J249999D01*
G01*
X24000000Y-31149999D01*
G75*
G02*
X24249999Y-30900000I249999J0D01*
G01*
X27350001Y-30900000D01*
G75*
G02*
X27600000Y-31149999I0J-249999D01*
G01*
X27600000Y-32730001D01*
G75*
G02*
X27350001Y-32980000I-249999J0D01*
G01*
G37*
D22*
X25800000Y-26860000D03*
X25800000Y-21780000D03*
X25800000Y-16700000D03*
X25800000Y-11620000D03*
%TD*%
%TO.C,J6*%
G36*
G01*
X27350001Y2580000D02*
X24249999Y2580000D01*
G75*
G02*
X24000000Y2829999I0J249999D01*
G01*
X24000000Y4410001D01*
G75*
G02*
X24249999Y4660000I249999J0D01*
G01*
X27350001Y4660000D01*
G75*
G02*
X27600000Y4410001I0J-249999D01*
G01*
X27600000Y2829999D01*
G75*
G02*
X27350001Y2580000I-249999J0D01*
G01*
G37*
X25800000Y8700000D03*
X25800000Y13780000D03*
X25800000Y18860000D03*
X25800000Y23940000D03*
%TD*%
D23*
%TO.C,FL1*%
X-15156000Y18563000D03*
X-15156000Y16313000D03*
X-19556000Y18563000D03*
X-19556000Y16313000D03*
%TD*%
D24*
%TO.C,U2*%
X-6550000Y29900000D03*
X-11150000Y29900000D03*
X-8850000Y29900000D03*
D25*
X-8850000Y23600000D03*
%TD*%
D26*
%TO.C,FL2*%
X-18050000Y29900000D03*
D27*
X-19950000Y29900000D03*
D26*
X-21850000Y29900000D03*
%TD*%
D28*
%TO.C,J1*%
X-28142000Y19308000D03*
X-28142000Y7268000D03*
D29*
X-25432000Y12038000D03*
X-25432000Y14538000D03*
X-23432000Y14538000D03*
D13*
X-23432000Y12038000D03*
%TD*%
D30*
%TO.C,U1*%
X-10724000Y17450000D03*
X-10724000Y18400000D03*
X-10724000Y16500000D03*
X-12924000Y16500000D03*
X-12924000Y17450000D03*
X-12924000Y18400000D03*
%TD*%
D31*
%TO.C,A3*%
X18180000Y-30670000D03*
D32*
X5480000Y-12890000D03*
X18180000Y-28130000D03*
X5480000Y-15430000D03*
X18180000Y-25590000D03*
X5480000Y-17970000D03*
X18180000Y-23050000D03*
X5480000Y-20510000D03*
X18180000Y-20510000D03*
X5480000Y-23050000D03*
X18180000Y-17970000D03*
X5480000Y-25590000D03*
X18180000Y-15430000D03*
X5480000Y-28130000D03*
X18180000Y-12890000D03*
X5480000Y-30670000D03*
%TD*%
D31*
%TO.C,A2*%
X18180000Y4890000D03*
D32*
X5480000Y22670000D03*
X18180000Y7430000D03*
X5480000Y20130000D03*
X18180000Y9970000D03*
X5480000Y17590000D03*
X18180000Y12510000D03*
X5480000Y15050000D03*
X18180000Y15050000D03*
X5480000Y12510000D03*
X18180000Y17590000D03*
X5480000Y9970000D03*
X18180000Y20130000D03*
X5480000Y7430000D03*
X18180000Y22670000D03*
X5480000Y4890000D03*
%TD*%
%TO.C,A1*%
X-17240000Y5560000D03*
X-2000000Y5560000D03*
X-17240000Y-30000000D03*
X-2000000Y3020000D03*
X-17240000Y-27460000D03*
X-2000000Y480000D03*
X-17240000Y-24920000D03*
X-2000000Y-2060000D03*
X-17240000Y-22380000D03*
X-2000000Y-4600000D03*
X-17240000Y-19840000D03*
X-2000000Y-7140000D03*
X-17240000Y-17300000D03*
X-2000000Y-9680000D03*
X-17240000Y-14760000D03*
X-2000000Y-12220000D03*
X-17240000Y-12220000D03*
X-2000000Y-14760000D03*
X-17240000Y-9680000D03*
X-2000000Y-17300000D03*
X-17240000Y-7140000D03*
X-2000000Y-19840000D03*
X-17240000Y-4600000D03*
X-2000000Y-22380000D03*
X-17240000Y-2060000D03*
X-2000000Y-24920000D03*
X-17240000Y480000D03*
X-2000000Y-27460000D03*
X-17240000Y3020000D03*
D31*
X-2000000Y-30000000D03*
%TD*%
M02*
